<svg width="409" height="468" viewBox="0 0 409 468" fill="none" xmlns="http://www.w3.org/2000/svg">
<g filter="url(#filter0_d)">
<path d="M197.494 424C285.906 424 357.578 410.759 357.578 394.425C357.578 378.092 285.906 364.851 197.494 364.851C109.083 364.851 37.4111 378.092 37.4111 394.425C37.4111 410.759 109.083 424 197.494 424Z" fill="#FFE4DB"/>
<path opacity="0.5" d="M197.494 424C285.906 424 357.578 410.759 357.578 394.425C357.578 378.092 285.906 364.851 197.494 364.851C109.083 364.851 37.4111 378.092 37.4111 394.425C37.4111 410.759 109.083 424 197.494 424Z" fill="white"/>
</g>
<path d="M367.442 1H252.017C248.074 1 244.878 3.95277 244.878 7.5952V125.138C244.878 128.781 248.074 131.734 252.017 131.734H367.442C371.384 131.734 374.581 128.781 374.581 125.138V7.5952C374.581 3.95277 371.384 1 367.442 1Z" fill="white" stroke="#263238" stroke-linecap="round" stroke-linejoin="round"/>
<path d="M252.017 1.00008H367.43C369.314 1.00008 371.121 1.69147 372.453 2.92216C373.785 4.15284 374.534 5.82201 374.534 7.56246V14.4092H244.878V7.59528C244.873 6.72797 245.055 5.8684 245.412 5.06627C245.769 4.26414 246.295 3.53536 246.959 2.92207C247.622 2.30879 248.411 1.82315 249.28 1.49325C250.148 1.16336 251.078 0.995735 252.017 1.00008Z" fill="#263238" stroke="#263238" stroke-linecap="round" stroke-linejoin="round"/>
<path d="M251.946 70.8018H304.135" stroke="#263238" stroke-linecap="round" stroke-linejoin="round"/>
<path d="M251.946 77.0254H304.135" stroke="#263238" stroke-linecap="round" stroke-linejoin="round"/>
<path d="M251.946 83.249H304.135" stroke="#263238" stroke-linecap="round" stroke-linejoin="round"/>
<path d="M251.946 89.4707H304.135" stroke="#263238" stroke-linecap="round" stroke-linejoin="round"/>
<path d="M251.946 95.6953H304.135" stroke="#263238" stroke-linecap="round" stroke-linejoin="round"/>
<path d="M251.946 101.928H304.135" stroke="#263238" stroke-linecap="round" stroke-linejoin="round"/>
<path d="M251.946 108.152H304.135" stroke="#263238" stroke-linecap="round" stroke-linejoin="round"/>
<path d="M251.946 114.376H304.135" stroke="#263238" stroke-linecap="round" stroke-linejoin="round"/>
<path d="M251.946 120.6H304.135" stroke="#263238" stroke-linecap="round" stroke-linejoin="round"/>
<path d="M313.312 70.8018H365.5" stroke="#263238" stroke-linecap="round" stroke-linejoin="round"/>
<path d="M313.312 77.0254H365.5" stroke="#263238" stroke-linecap="round" stroke-linejoin="round"/>
<path d="M313.312 83.249H365.5" stroke="#263238" stroke-linecap="round" stroke-linejoin="round"/>
<path d="M313.312 89.4707H365.5" stroke="#263238" stroke-linecap="round" stroke-linejoin="round"/>
<path d="M313.312 95.6953H365.5" stroke="#263238" stroke-linecap="round" stroke-linejoin="round"/>
<path d="M313.312 101.928H365.5" stroke="#263238" stroke-linecap="round" stroke-linejoin="round"/>
<path d="M313.312 108.152H365.5" stroke="#263238" stroke-linecap="round" stroke-linejoin="round"/>
<path d="M313.312 114.376H365.5" stroke="#263238" stroke-linecap="round" stroke-linejoin="round"/>
<path d="M313.312 120.6H365.5" stroke="#263238" stroke-linecap="round" stroke-linejoin="round"/>
<path d="M286.85 31.3962C287.107 30.6572 287.243 29.8866 287.252 29.1103C287.252 26.2775 284.138 26.1135 281.084 26.1135H280.314V25.4463H293.646V26.1135C290.177 26.1135 288.91 28.1587 287.832 31.1884L280.728 50.7771C280.196 52.2317 279.746 53.3145 278.076 53.3145H277.934L271.683 34.6008L265.87 50.8208C265.325 52.2755 264.875 53.3583 263.206 53.3583H263.076L253.983 26.1135H250.786V25.4463H262.484V26.1135H259.157L265.905 47.5725H266.178L271.269 33.3211L268.901 26.1681H265.704V25.4463H277.413V26.1135H274.086L280.835 47.5725H281.096L286.85 31.3962Z" fill="#FF9776"/>
<path d="M365.867 19.2422H312.162V64.0851H365.867V19.2422Z" fill="#FF9776" stroke="#263238" stroke-width="2" stroke-linecap="round" stroke-linejoin="round"/>
<path d="M365.866 37.9893C364.065 38.084 362.275 38.3145 360.514 38.6783C352.357 40.3189 350.226 51.1359 341.003 51.1359C332.833 51.1359 332.135 40.9751 320.425 39.6627C317.576 39.2481 314.659 39.7255 312.138 41.0189V64.0857H365.866V37.9893Z" fill="#263238" stroke="#263238" stroke-linecap="round" stroke-linejoin="round"/>
<path d="M330.004 29.5036C330.006 30.6078 329.654 31.6877 328.991 32.6067C328.329 33.5257 327.386 34.2423 326.282 34.6659C325.178 35.0894 323.963 35.2008 322.791 34.9859C321.618 34.771 320.541 34.2396 319.696 33.4588C318.851 32.678 318.276 31.6831 318.043 30.6001C317.811 29.517 317.931 28.3946 318.39 27.3749C318.848 26.3552 319.624 25.4841 320.619 24.872C321.613 24.26 322.783 23.9344 323.978 23.9365C325.576 23.9365 327.109 24.5231 328.239 25.5671C329.369 26.6111 330.004 28.0271 330.004 29.5036Z" fill="white" stroke="#263238" stroke-linecap="round" stroke-linejoin="round"/>
<path d="M368.318 4.92676H248.773V9.18137H368.318V4.92676Z" fill="white" stroke="#263238" stroke-linecap="round" stroke-linejoin="round"/>
<path d="M360.859 157.818H309.108C307.073 157.818 305.122 158.565 303.683 159.894C302.244 161.223 301.436 163.026 301.436 164.906V190.477C301.436 192.357 302.244 194.16 303.683 195.489C305.122 196.818 307.073 197.564 309.108 197.564H310.694C309.084 200.846 305.959 205.877 301.021 208.863C301.021 208.863 311.523 208.185 322.463 197.564H360.835C362.87 197.564 364.821 196.818 366.26 195.489C367.699 194.16 368.507 192.357 368.507 190.477V164.906C368.507 163.03 367.702 161.23 366.268 159.902C364.835 158.573 362.889 157.824 360.859 157.818Z" fill="#263238" stroke="#263238" stroke-linecap="round" stroke-linejoin="round"/>
<path d="M326.086 176.785C326.088 176.062 325.858 175.354 325.424 174.751C324.99 174.149 324.373 173.679 323.65 173.401C322.927 173.123 322.131 173.05 321.363 173.191C320.594 173.331 319.889 173.679 319.335 174.191C318.781 174.703 318.404 175.355 318.252 176.064C318.1 176.774 318.179 177.509 318.48 178.177C318.781 178.845 319.289 179.416 319.942 179.816C320.594 180.217 321.36 180.429 322.143 180.427C323.188 180.424 324.189 180.04 324.927 179.357C325.666 178.675 326.082 177.75 326.086 176.785Z" fill="#FF9776" stroke="#263238" stroke-linecap="round" stroke-linejoin="round"/>
<path d="M339.5 176.783C339.5 176.062 339.269 175.358 338.836 174.759C338.403 174.16 337.787 173.694 337.067 173.418C336.346 173.142 335.553 173.07 334.789 173.211C334.024 173.351 333.321 173.698 332.77 174.207C332.219 174.717 331.843 175.366 331.691 176.072C331.539 176.779 331.617 177.511 331.915 178.177C332.214 178.842 332.719 179.411 333.367 179.811C334.016 180.211 334.778 180.425 335.558 180.425C336.603 180.422 337.604 180.037 338.342 179.355C339.081 178.673 339.497 177.748 339.5 176.783Z" fill="#FF9776" stroke="#263238" stroke-linecap="round" stroke-linejoin="round"/>
<path d="M352.926 176.785C352.929 176.062 352.699 175.355 352.266 174.753C351.833 174.15 351.216 173.68 350.493 173.402C349.771 173.124 348.976 173.05 348.208 173.19C347.44 173.33 346.734 173.677 346.18 174.187C345.626 174.698 345.248 175.349 345.094 176.057C344.941 176.766 345.018 177.501 345.317 178.17C345.616 178.838 346.123 179.409 346.774 179.811C347.424 180.213 348.189 180.427 348.972 180.427C350.018 180.424 351.02 180.04 351.761 179.358C352.501 178.676 352.92 177.751 352.926 176.785Z" fill="#FF9776" stroke="#263238" stroke-linecap="round" stroke-linejoin="round"/>
<path d="M76.2701 16.5098H161.515C163.544 16.5098 165.489 17.2542 166.923 18.5792C168.358 19.9042 169.164 21.7014 169.164 23.5753V78.1633H68.6572V23.5753C68.6572 21.707 69.4581 19.9149 70.8848 18.5908C72.3115 17.2667 74.2478 16.5184 76.2701 16.5098Z" fill="#FF9776" stroke="#263238" stroke-linecap="round" stroke-linejoin="round"/>
<path d="M169.116 69.3594H68.6572V78.1311H169.116V69.3594Z" fill="#263238" stroke="#263238" stroke-linecap="round" stroke-linejoin="round"/>
<path d="M164.522 72.3564H73.2627V75.1345H164.522V72.3564Z" fill="white" stroke="#263238" stroke-linecap="round" stroke-linejoin="round"/>
<path d="M118.893 57.306C126.556 57.306 132.769 51.5669 132.769 44.4875C132.769 37.408 126.556 31.6689 118.893 31.6689C111.229 31.6689 105.017 37.408 105.017 44.4875C105.017 51.5669 111.229 57.306 118.893 57.306Z" fill="#263238" stroke="#263238" stroke-linecap="round" stroke-linejoin="round"/>
<path d="M112.629 36.5146L127.606 44.4989L112.629 52.4831V36.5146Z" fill="white" stroke="#263238" stroke-linecap="round" stroke-linejoin="round"/>
<path d="M125.665 100.583H30.3202C28.4763 100.583 26.9814 101.964 26.9814 103.668V137.234C26.9814 138.938 28.4763 140.318 30.3202 140.318H125.665C127.509 140.318 129.003 138.938 129.003 137.234V103.668C129.003 101.964 127.509 100.583 125.665 100.583Z" fill="#263238" stroke="#263238" stroke-linecap="round" stroke-linejoin="round"/>
<path d="M39.1286 105.998L39.6258 106.764C37.3763 107.923 35.2807 109.957 35.2807 112.342C35.2519 112.751 35.3119 113.162 35.4572 113.55C35.6024 113.938 35.83 114.295 36.1266 114.601C36.4232 114.906 36.7829 115.154 37.1845 115.33C37.5862 115.505 38.0217 115.605 38.4655 115.623C38.7971 115.623 39.022 115.47 39.022 115.164C39.022 114.857 38.8563 114.759 38.5247 114.704C38.0777 114.592 37.6882 114.337 37.4258 113.985C37.1634 113.632 37.0452 113.205 37.0922 112.779C37.1008 112.44 37.1841 112.105 37.337 111.796C37.4899 111.487 37.7093 111.21 37.9817 110.982C38.2542 110.754 38.574 110.579 38.9218 110.469C39.2695 110.359 39.638 110.315 40.0047 110.34C40.4036 110.341 40.7982 110.417 41.1651 110.561C41.532 110.706 41.8638 110.917 42.1409 111.182C42.418 111.447 42.6347 111.761 42.7782 112.105C42.9217 112.449 42.9891 112.816 42.9764 113.184C42.9706 113.647 42.8639 114.104 42.6627 114.528C42.4614 114.952 42.1697 115.334 41.8051 115.651C41.4404 115.969 41.0102 116.215 40.5401 116.376C40.0701 116.536 39.5699 116.607 39.0694 116.585C38.4471 116.623 37.8233 116.539 37.2384 116.339C36.6535 116.139 36.1205 115.828 35.674 115.426C35.2276 115.024 34.8775 114.54 34.6466 114.004C34.4157 113.469 34.309 112.895 34.3335 112.32C34.298 109.553 36.6067 107.321 39.1286 105.998ZM49.2988 105.998L49.796 106.764C47.5347 107.923 45.4509 109.957 45.4509 112.342C45.4205 112.752 45.4793 113.163 45.624 113.552C45.7686 113.94 45.9961 114.298 46.2931 114.604C46.59 114.91 46.9503 115.157 47.3527 115.333C47.7551 115.508 48.1914 115.606 48.6358 115.623C48.9673 115.623 49.1922 115.47 49.1922 115.164C49.1922 114.857 49.0265 114.759 48.695 114.704C48.2479 114.592 47.8584 114.337 47.596 113.985C47.3336 113.632 47.2154 113.205 47.2624 112.779C47.2693 112.439 47.3515 112.104 47.5038 111.794C47.6562 111.485 47.8755 111.207 48.1483 110.978C48.4211 110.75 48.7417 110.576 49.0902 110.466C49.4387 110.356 49.8078 110.313 50.1749 110.34C50.5738 110.341 50.9684 110.417 51.3353 110.561C51.7022 110.706 52.0341 110.917 52.3111 111.182C52.5882 111.447 52.8049 111.761 52.9484 112.105C53.0919 112.449 53.1593 112.816 53.1467 113.184C53.1392 113.646 53.0314 114.103 52.8296 114.526C52.6278 114.949 52.3361 115.331 51.9717 115.648C51.6074 115.965 51.1778 116.211 50.7085 116.372C50.2392 116.534 49.7397 116.606 49.2396 116.585C48.6177 116.621 47.9948 116.536 47.4107 116.335C46.8266 116.135 46.2944 115.824 45.8483 115.422C45.4022 115.02 45.0521 114.537 44.8206 114.002C44.589 113.468 44.4811 112.895 44.5037 112.32C44.4564 109.553 46.7651 107.321 49.2988 105.998Z" fill="#FF9776"/>
<path d="M59.0312 114.093H117.093" stroke="white" stroke-linecap="round" stroke-linejoin="round"/>
<path d="M59.0312 118.698H117.093" stroke="white" stroke-linecap="round" stroke-linejoin="round"/>
<path d="M59.0312 123.302H117.093" stroke="white" stroke-linecap="round" stroke-linejoin="round"/>
<path d="M59.0312 127.916H117.093" stroke="white" stroke-linecap="round" stroke-linejoin="round"/>
<path d="M106.82 201.93C118.805 200.123 126.934 189.684 124.978 178.613C123.022 167.542 111.721 160.033 99.7371 161.84C87.7531 163.647 79.6238 174.086 81.5798 185.157C83.5358 196.227 94.8364 203.737 106.82 201.93Z" fill="#263238" stroke="#263238" stroke-linecap="round" stroke-linejoin="round"/>
<path d="M117.224 193.218C123.985 186.105 123.225 175.276 115.526 169.031C107.827 162.785 96.1052 163.487 89.3439 170.599C82.5827 177.711 83.3428 188.54 91.0417 194.786C98.7406 201.032 110.463 200.33 117.224 193.218Z" fill="white" stroke="#263238" stroke-linecap="round" stroke-linejoin="round"/>
<path d="M103.287 169.49V181.882H112.356" stroke="#263238" stroke-width="2" stroke-linecap="round" stroke-linejoin="round"/>
<path d="M240.84 181.926C240.84 181.926 253.449 206.787 253.449 208.099C253.449 209.411 242.26 215.033 240.129 216.214C238.476 217.084 236.773 217.869 235.026 218.566L236.305 230.083C236.305 230.083 255.568 226.025 263.643 221.967C271.717 217.91 271.433 213.327 269.563 206.524C267.692 199.721 255.248 173.428 255.248 173.428L240.84 181.926Z" fill="#FFBE9D"/>
<g style="mix-blend-mode:multiply" opacity="0.5">
<path d="M263.607 221.967C271.682 217.91 271.398 213.327 269.527 206.524C267.656 199.721 255.213 173.428 255.213 173.428L253.2 174.609L252.561 175.703C252.561 175.703 264.176 202.04 264.874 210.811C265.348 216.707 252.502 224.057 244.013 228.256C250.311 226.714 258.883 224.341 263.607 221.967Z" fill="#FFE4DC"/>
</g>
<path d="M240.84 181.926C240.84 181.926 253.449 206.787 253.449 208.099C253.449 209.411 242.26 215.033 240.129 216.214C238.476 217.084 236.773 217.869 235.026 218.566L236.305 230.083C236.305 230.083 255.568 226.025 263.643 221.967C271.717 217.91 271.433 213.327 269.563 206.524C267.692 199.721 255.248 173.428 255.248 173.428L240.84 181.926Z" stroke="#263238" stroke-linecap="round" stroke-linejoin="round"/>
<path d="M149.863 176.434C149.863 176.434 140.664 207.572 140.392 213.074C140.119 218.575 158.66 229.425 159.335 230.081C160.01 230.737 158.281 211.16 158.281 211.16L164.568 182.723L149.863 176.434Z" fill="#FFBE9D"/>
<g style="mix-blend-mode:multiply" opacity="0.5">
<path d="M154.078 178.982L153.877 178.14L149.863 176.434C149.863 176.434 140.664 207.572 140.392 213.074C140.119 218.575 158.66 229.425 159.335 230.081C159.607 230.344 159.501 227.412 159.276 223.792C153.759 219.472 145.838 213.391 144.914 210.831" fill="#FFE4DC"/>
</g>
<path d="M149.863 176.434C149.863 176.434 140.664 207.572 140.392 213.074C140.119 218.575 158.66 229.425 159.335 230.081C160.01 230.737 158.281 211.16 158.281 211.16L164.568 182.723L149.863 176.434Z" stroke="#263238" stroke-linecap="round" stroke-linejoin="round"/>
<path d="M193.068 145.153C193.068 145.153 189.516 147.516 182.589 147.778C175.663 148.041 175.332 143.403 166.724 143.403C156.294 143.403 143.211 173.886 143.211 173.886C143.211 173.886 149.723 179.781 156.104 182.264C159.634 183.692 163.346 184.703 167.151 185.271L168.145 205.298H238.401L239.242 185.271L261.204 172.114C261.204 172.114 250.43 154.319 245.197 147.647C239.964 140.975 231.167 143.458 228.48 145.153C225.792 146.849 217.824 147.253 214.888 146.86C211.057 146.077 207.272 145.116 203.546 143.983C203.546 143.983 199.023 140.505 193.068 145.153Z" fill="#FF9776" stroke="#263238" stroke-linecap="round" stroke-linejoin="round"/>
<path d="M167.861 152.219L167.576 185.457" stroke="#263238" stroke-width="0.5" stroke-linecap="round" stroke-linejoin="round"/>
<path d="M170.406 155.238C170.406 155.238 171.401 171.458 175.142 180.493" stroke="#263238" stroke-width="0.5" stroke-linecap="round" stroke-linejoin="round"/>
<path d="M175.793 181.793C176.601 183.998 177.595 186.141 178.765 188.202" stroke="#263238" stroke-width="0.5" stroke-linecap="round" stroke-linejoin="round"/>
<path d="M172.667 153.401C174.011 159.299 175.909 165.078 178.338 170.671" stroke="#263238" stroke-width="0.5" stroke-linecap="round" stroke-linejoin="round"/>
<path d="M233.736 156.276C233.736 156.276 230.338 169.106 227.354 174.87" stroke="#263238" stroke-width="0.5" stroke-linecap="round" stroke-linejoin="round"/>
<path d="M239.242 185.326L239.1 159.416" stroke="#263238" stroke-width="0.5" stroke-linecap="round" stroke-linejoin="round"/>
<path d="M237.69 159.941C237.69 159.941 235.133 176.347 228.905 184.933" stroke="#263238" stroke-width="0.5" stroke-linecap="round" stroke-linejoin="round"/>
<path d="M234.576 181.662C234.576 181.662 231.734 186.639 229.757 189.253" stroke="#263238" stroke-width="0.5" stroke-linecap="round" stroke-linejoin="round"/>
<path d="M189.101 147.122C189.101 147.122 191.09 158.377 193.919 164.13C196.749 169.883 201.71 171.064 205.96 169.369C210.211 167.673 213.324 159.284 213.064 148.588" stroke="#263238" stroke-width="0.5" stroke-linecap="round" stroke-linejoin="round"/>
<path d="M179.049 123.563C179.049 123.563 176.35 119.253 174.23 121.474C172.111 123.694 175.935 128.802 178.054 130.497C180.174 132.192 181.737 131.153 181.606 129.326C181.476 127.5 179.049 123.563 179.049 123.563Z" fill="#FF9776" stroke="#263238" stroke-linecap="round" stroke-linejoin="round"/>
<path opacity="0.5" d="M179.049 123.563C179.049 123.563 176.35 119.253 174.23 121.474C172.111 123.694 175.935 128.802 178.054 130.497C180.174 132.192 181.737 131.153 181.606 129.326C181.476 127.5 179.049 123.563 179.049 123.563Z" fill="white"/>
<path d="M179.049 123.563C179.049 123.563 176.35 119.253 174.23 121.474C172.111 123.694 175.935 128.802 178.054 130.497C180.174 132.192 181.737 131.153 181.606 129.326C181.476 127.5 179.049 123.563 179.049 123.563Z" stroke="#263238" stroke-linecap="round" stroke-linejoin="round"/>
<path d="M221.896 123.563C221.896 123.563 224.584 119.253 226.715 121.474C228.846 123.694 225.01 128.802 222.891 130.497C220.772 132.192 219.197 131.153 219.339 129.326C219.481 127.5 221.896 123.563 221.896 123.563Z" fill="#FF9776" stroke="#263238" stroke-linecap="round" stroke-linejoin="round"/>
<path opacity="0.5" d="M221.896 123.563C221.896 123.563 224.584 119.253 226.715 121.474C228.846 123.694 225.01 128.802 222.891 130.497C220.772 132.192 219.197 131.153 219.339 129.326C219.481 127.5 221.896 123.563 221.896 123.563Z" fill="white"/>
<path d="M221.896 123.563C221.896 123.563 224.584 119.253 226.715 121.474C228.846 123.694 225.01 128.802 222.891 130.497C220.772 132.192 219.197 131.153 219.339 129.326C219.481 127.5 221.896 123.563 221.896 123.563Z" stroke="#263238" stroke-linecap="round" stroke-linejoin="round"/>
<path d="M191.788 144.246C193.125 149.831 194.83 155.335 196.891 160.729C199.448 166.613 204.255 166.613 206.244 162.818C208.233 159.022 209.5 144.88 209.5 144.88C209.5 144.88 196.181 146.598 191.788 144.246Z" fill="#FFBE9D" stroke="#263238" stroke-linecap="round" stroke-linejoin="round"/>
<path d="M179.333 125.007C179.333 125.007 183.015 137.038 189.989 144.114C196.962 151.191 199.46 152.864 203.166 152.35C206.872 151.836 210.815 147.385 216.332 138.132C221.849 128.879 222.252 121.78 222.713 121.124C223.175 120.468 221.53 107.387 213.644 101.754C205.759 96.1214 196.927 93.6496 189.278 99.7964C181.63 105.943 176.776 115.973 179.333 125.007Z" fill="#FFBE9D"/>
<g style="mix-blend-mode:multiply" opacity="0.5">
<path d="M213.608 101.712C205.676 96.0901 196.891 93.6073 189.242 99.7541C181.594 105.901 176.775 115.974 179.332 125.008C179.332 125.008 180.031 127.327 181.416 130.477C181.412 130.074 181.472 129.672 181.594 129.285C183.287 124.33 188.283 114.738 205.095 119.135C218.45 122.613 216.817 133.463 215.573 139.249L216.296 138.046C221.825 128.76 222.215 121.694 222.677 121.038C223.139 120.382 221.541 107.345 213.608 101.712Z" fill="#FFE4DB"/>
</g>
<path d="M179.333 125.007C179.333 125.007 183.015 137.038 189.989 144.114C196.962 151.191 199.46 152.864 203.166 152.35C206.872 151.836 210.815 147.385 216.332 138.132C221.849 128.879 222.252 121.78 222.713 121.124C223.175 120.468 221.53 107.387 213.644 101.754C205.759 96.1214 196.927 93.6496 189.278 99.7964C181.63 105.943 176.776 115.973 179.333 125.007Z" stroke="#263238" stroke-linecap="round" stroke-linejoin="round"/>
<path d="M203.13 131.285C202.691 133.84 202.454 136.42 202.42 139.007C202.562 141.621 203.415 142.408 202.136 142.671C200.857 142.933 199.448 141.096 199.448 141.096" stroke="#263238" stroke-linecap="round" stroke-linejoin="round"/>
<path d="M188.959 133.385C189.78 133.932 190.761 134.238 191.773 134.261C192.785 134.285 193.781 134.025 194.63 133.516" stroke="#263238" stroke-linecap="round" stroke-linejoin="round"/>
<path d="M206.954 133.385C207.773 133.931 208.752 134.237 209.762 134.26C210.772 134.283 211.766 134.024 212.613 133.516" stroke="#263238" stroke-linecap="round" stroke-linejoin="round"/>
<path d="M198.004 128.977C198.004 128.977 195.305 122.82 186.39 125.696" stroke="#263238" stroke-linecap="round" stroke-linejoin="round"/>
<path d="M205.427 128.223C205.427 128.223 207.688 122.197 215.763 125.73" stroke="#263238" stroke-linecap="round" stroke-linejoin="round"/>
<path d="M101.878 238.755L101.298 371.348C101.298 371.766 101.477 372.166 101.797 372.462C102.117 372.757 102.551 372.923 103.003 372.923C103.444 372.923 103.867 372.764 104.184 372.48C104.5 372.196 104.683 371.81 104.696 371.402L108.792 238.941L101.878 238.755Z" fill="white" stroke="#263238" stroke-linecap="round" stroke-linejoin="round"/>
<path d="M92.2176 269.751L91.6612 406.828C91.6596 407.035 91.7026 407.241 91.7877 407.433C91.8729 407.624 91.9984 407.799 92.157 407.945C92.3157 408.092 92.5042 408.208 92.7118 408.286C92.9193 408.365 93.1418 408.405 93.3661 408.403C93.8062 408.404 94.2294 408.247 94.5472 407.965C94.865 407.684 95.0527 407.3 95.071 406.894L99.1557 269.926L92.2176 269.751Z" fill="white" stroke="#263238" stroke-linecap="round" stroke-linejoin="round"/>
<path d="M300.31 238.755L300.89 371.348C300.891 371.554 300.849 371.759 300.764 371.95C300.68 372.141 300.556 372.314 300.398 372.461C300.241 372.607 300.054 372.723 299.848 372.803C299.641 372.882 299.42 372.923 299.197 372.923C298.755 372.923 298.33 372.765 298.012 372.481C297.694 372.197 297.507 371.811 297.492 371.402L293.407 238.941L300.31 238.755Z" fill="white" stroke="#263238" stroke-linecap="round" stroke-linejoin="round"/>
<path d="M309.984 269.751L310.564 406.828C310.565 407.035 310.522 407.241 310.437 407.433C310.352 407.624 310.227 407.799 310.068 407.945C309.909 408.092 309.721 408.208 309.513 408.286C309.306 408.365 309.083 408.405 308.859 408.403C308.42 408.403 307.998 408.246 307.682 407.965C307.366 407.683 307.181 407.299 307.166 406.894L303.069 269.926L309.984 269.751Z" fill="white" stroke="#263238" stroke-linecap="round" stroke-linejoin="round"/>
<path d="M159.489 275.449L159.146 397.116C159.108 397.419 159.2 397.725 159.401 397.967C159.602 398.21 159.896 398.371 160.223 398.417C160.543 398.376 160.833 398.225 161.035 397.993C161.238 397.761 161.337 397.467 161.313 397.17L163.882 275.591L159.489 275.449Z" fill="white" stroke="#263238" stroke-linecap="round" stroke-linejoin="round"/>
<path d="M242.853 271.534L243.173 377.714C243.2 377.97 243.12 378.227 242.948 378.431C242.776 378.634 242.526 378.769 242.249 378.807C241.974 378.769 241.725 378.634 241.555 378.43C241.385 378.226 241.307 377.969 241.338 377.714L239.147 271.622L242.853 271.534Z" fill="white" stroke="#263238" stroke-linecap="round" stroke-linejoin="round"/>
<path d="M158.2 271.534L158.52 377.714C158.547 377.97 158.466 378.227 158.295 378.431C158.123 378.634 157.873 378.769 157.596 378.807C157.321 378.769 157.072 378.634 156.902 378.43C156.732 378.226 156.654 377.969 156.684 377.714L154.494 271.622L158.2 271.534Z" fill="white" stroke="#263238" stroke-linecap="round" stroke-linejoin="round"/>
<path d="M240.472 275.449L240.839 397.116C240.877 397.419 240.786 397.725 240.585 397.967C240.384 398.21 240.089 398.371 239.762 398.417C239.444 398.374 239.155 398.222 238.954 397.991C238.752 397.76 238.651 397.467 238.673 397.17L236.104 275.591L240.472 275.449Z" fill="white" stroke="#263238" stroke-linecap="round" stroke-linejoin="round"/>
<path d="M199.401 283.97C228.499 283.97 252.087 278.99 252.087 272.847C252.087 266.704 228.499 261.724 199.401 261.724C170.303 261.724 146.715 266.704 146.715 272.847C146.715 278.99 170.303 283.97 199.401 283.97Z" fill="white" stroke="#263238" stroke-linecap="round" stroke-linejoin="round"/>
<path d="M173.746 367.268C173.746 367.268 170.987 370.921 172.964 372.737C174.941 374.553 176.907 373.831 176.706 375.657C176.504 377.484 173.355 383.674 170.596 390.237C167.838 396.799 173.556 403.362 178.884 401.546C184.212 399.73 183.62 381.487 184.401 378.206C185.183 374.925 185.787 374.378 185.585 371.282C185.384 368.187 185.195 364.906 182.625 364.534C180.056 364.162 174.93 366 173.746 367.268Z" fill="white" stroke="#263238" stroke-linecap="round" stroke-linejoin="round"/>
<path d="M182.21 396.516C178.658 395.269 173.212 395.52 170.146 395.805C171.176 399.928 175.118 402.826 178.883 401.547C180.458 401.011 181.488 399.064 182.21 396.516Z" fill="#FF9776" stroke="#263238" stroke-linecap="round" stroke-linejoin="round"/>
<path d="M167.636 359.251C167.636 359.251 173.354 368.187 174.929 370.549C176.504 372.912 181.843 372.19 182.435 368.909C183.027 365.627 180.257 356.517 180.257 356.517L168.417 359.251H167.636Z" fill="#FFBE9D" stroke="#263238" stroke-linecap="round" stroke-linejoin="round"/>
<path d="M154.02 345.033C154.02 345.033 152.434 347.406 153.227 349.047C154.02 350.687 156.187 355.423 157.572 357.797C158.957 360.17 165.268 361.625 172.561 360.531C179.854 359.437 184.01 356.331 184.211 353.597C184.413 350.862 183.027 347.22 182.033 342.845C181.038 338.47 178.481 338.656 174.929 338.656C171.377 338.656 156.98 342.484 154.02 345.033Z" fill="#FF9776" stroke="#263238" stroke-linecap="round" stroke-linejoin="round"/>
<path d="M175.332 291.441C175.439 286.956 178.245 284.747 178.458 281.674C178.792 277.61 178.428 273.524 177.381 269.566L171.982 262.752C156.448 262.938 145.319 263.179 145.141 263.233C144.549 263.408 144.147 266.514 143.756 269.063C143.756 269.063 137.161 269.839 138.345 286.792C138.511 289.155 145.165 316.487 145.65 319.604C148.61 338.646 155.205 348.183 155.205 348.183C155.205 348.183 155.797 350.557 163.493 350.01C171.188 349.463 178.884 344.727 178.884 344.727C178.884 344.727 174.93 307.661 175.332 291.441Z" fill="#263238" stroke="#263238" stroke-linecap="round" stroke-linejoin="round"/>
<path d="M142.69 266.284C142.69 266.284 134.533 267.378 129.537 272.649C124.54 277.921 128.779 281.399 138.487 280.459C148.196 279.518 159.396 270.342 159.87 269.849C160.343 269.357 149.747 263.123 142.69 266.284Z" fill="white" stroke="#263238" stroke-linecap="round" stroke-linejoin="round"/>
<path d="M157.169 269.566C162.366 269.813 167.523 270.546 172.56 271.754C179.274 273.58 191.113 277.222 193.872 277.222C196.63 277.222 195.849 267.74 195.849 265.924C195.849 264.109 160.33 263.004 155.985 263.004C151.64 263.004 157.169 269.566 157.169 269.566Z" fill="#FFBE9D" stroke="#263238" stroke-linecap="round" stroke-linejoin="round"/>
<path d="M195.85 265.923C195.85 265.923 192.689 267.378 191.505 272.847C190.321 278.315 188.746 281.236 191.114 282.69C193.482 284.145 203.747 285.239 205.322 283.784C206.896 282.329 211.241 275.034 212.035 270.298C212.828 265.562 195.85 265.923 195.85 265.923Z" fill="#FF9776" stroke="#263238" stroke-linecap="round" stroke-linejoin="round"/>
<path d="M209.263 267.74C207.427 269.685 205.962 271.904 204.929 274.302C204.093 276.812 203.432 279.369 202.952 281.958C206.729 282.915 210.422 284.136 213.998 285.611C220.321 288.16 230.976 289.986 241.23 292.174C251.483 294.361 254.253 296.549 257.805 296.549C261.357 296.549 265.702 293.989 271.231 287.799C276.76 281.608 272.013 268.472 266.495 264.459C260.978 260.445 231.367 257.174 227.425 258.268C223.482 259.362 209.263 267.74 209.263 267.74Z" fill="#263238" stroke="#263238" stroke-linecap="round" stroke-linejoin="round"/>
<path d="M135.219 280.558C134.439 277.286 132.86 274.222 130.602 271.601C130.235 271.918 129.879 272.246 129.536 272.607C125.144 277.222 127.89 280.504 135.219 280.558Z" fill="#FF9776" stroke="#263238" stroke-linecap="round" stroke-linejoin="round"/>
<path d="M174.728 283.446C174.728 283.446 170.655 323.706 162.344 329.974" stroke="white" stroke-width="0.5" stroke-linecap="round" stroke-linejoin="round"/>
<path d="M171.85 321.658C171.85 321.658 168.618 334.783 160.141 340" stroke="white" stroke-width="0.5" stroke-linecap="round" stroke-linejoin="round"/>
<path d="M224.265 276.128C224.265 276.128 211.633 276.861 219.92 281.958C228.208 287.054 243.209 290.346 243.209 290.346" stroke="white" stroke-width="0.5" stroke-linecap="round" stroke-linejoin="round"/>
<path d="M315.974 262.337L311.711 258.793L301.861 239.106C301.393 238.21 300.66 237.456 299.746 236.931C298.832 236.406 297.775 236.132 296.699 236.142H105.371C104.292 236.13 103.233 236.403 102.317 236.928C101.4 237.453 100.665 238.208 100.197 239.106L87.9191 263.627L85.8945 262.938V268.549L85.9893 268.483C86.1099 269.232 86.5211 269.914 87.1464 270.403C87.7716 270.892 88.5681 271.155 89.3872 271.141H312.67C313.533 271.159 314.37 270.867 315.004 270.327C315.638 269.786 316.019 269.039 316.068 268.243L315.974 262.337Z" fill="#263238" stroke="#263238" stroke-linecap="round" stroke-linejoin="round"/>
<path d="M312.671 266.012H89.3878C88.8348 266.032 88.2854 265.922 87.7909 265.693C87.2964 265.463 86.8731 265.121 86.5607 264.699C86.2483 264.277 86.0571 263.789 86.0048 263.28C85.9526 262.771 86.0411 262.258 86.2621 261.79L100.197 233.976C100.663 233.077 101.398 232.32 102.315 231.795C103.232 231.27 104.292 230.998 105.371 231.012H296.699C297.776 231 298.834 231.273 299.749 231.798C300.663 232.323 301.396 233.079 301.861 233.976L315.797 261.79C316.018 262.258 316.106 262.771 316.054 263.28C316.002 263.789 315.81 264.277 315.498 264.699C315.185 265.121 314.762 265.463 314.268 265.693C313.773 265.922 313.224 266.032 312.671 266.012Z" fill="white" stroke="#263238" stroke-linecap="round" stroke-linejoin="round"/>
<g style="mix-blend-mode:multiply" opacity="0.5">
<path d="M100.694 247.331C100.694 247.331 95.6383 250.535 98.7995 251.705C101.961 252.876 138.296 252.001 142.724 250.83C147.152 249.66 152.196 238.865 152.196 237.115C152.196 235.365 145.826 234.107 143.482 234.009C141.138 233.91 110.166 235.65 110.166 235.65L100.694 247.331Z" fill="#FF9776"/>
</g>
<g style="mix-blend-mode:multiply" opacity="0.5">
<path d="M281.438 252.876C288.591 252.876 294.39 250.653 294.39 247.911C294.39 245.168 288.591 242.945 281.438 242.945C274.284 242.945 268.485 245.168 268.485 247.911C268.485 250.653 274.284 252.876 281.438 252.876Z" fill="#FF9776"/>
</g>
<g style="mix-blend-mode:multiply" opacity="0.5">
<path d="M198.975 259.01C224.627 259.01 245.422 255.416 245.422 250.982C245.422 246.548 224.627 242.954 198.975 242.954C173.323 242.954 152.528 246.548 152.528 250.982C152.528 255.416 173.323 259.01 198.975 259.01Z" fill="#FF9776"/>
</g>
<path d="M271.966 228.376C271.966 228.376 271.114 225.237 268.284 226.287C265.455 227.337 265.739 234.271 266.295 238.198C266.852 242.124 270.688 240.287 270.688 240.287V237.935C270.688 237.935 269.279 238.974 268.568 237.542C267.858 236.109 268 228.901 268.71 229.032C269.421 229.164 270.83 231.384 270.83 231.384C270.83 231.384 271.256 231.132 271.966 228.376Z" fill="#FF9776" stroke="#263238" stroke-linecap="round" stroke-linejoin="round"/>
<path d="M269.93 228.901V246.095C269.93 248.118 274.962 249.759 281.177 249.759C287.393 249.759 292.413 248.118 292.413 246.095V228.901H269.93Z" fill="#FF9776" stroke="#263238" stroke-linecap="round" stroke-linejoin="round"/>
<path d="M292.413 228.901C292.413 230.651 287.381 232.062 281.177 232.062C274.973 232.062 269.93 230.651 269.93 228.901C269.93 227.151 274.962 225.74 281.177 225.74C287.393 225.74 292.413 227.162 292.413 228.901Z" fill="white" stroke="#263238" stroke-linecap="round" stroke-linejoin="round"/>
<path d="M290.945 228.902C290.945 230.422 286.564 231.647 281.177 231.647C275.79 231.647 271.397 230.422 271.397 228.902C271.397 227.381 275.778 226.156 281.177 226.156C286.576 226.156 290.945 227.381 290.945 228.902Z" fill="white" stroke="#263238" stroke-linecap="round" stroke-linejoin="round"/>
<path d="M273.636 230.652C278.557 231.979 283.786 231.979 288.708 230.652C283.786 229.326 278.557 229.326 273.636 230.652Z" fill="#263238" stroke="#263238" stroke-linecap="round" stroke-linejoin="round"/>
<path d="M99.2979 236.754L99.4399 242.638L142.358 243.032V236.229L99.2979 236.754Z" fill="white" stroke="#263238" stroke-linecap="round" stroke-linejoin="round"/>
<path d="M142.357 243.032L148.597 230.607V226.943L142.073 237.41L142.357 243.032Z" fill="white" stroke="#263238" stroke-linecap="round" stroke-linejoin="round"/>
<path d="M99.2979 242.113L99.4399 248.008L142.358 248.402V241.599L99.2979 242.113Z" fill="white" stroke="#263238" stroke-linecap="round" stroke-linejoin="round"/>
<path d="M142.357 248.401L148.597 235.966V232.302L142.073 242.769L142.357 248.401Z" fill="white" stroke="#263238" stroke-linecap="round" stroke-linejoin="round"/>
<path d="M115.873 221.835C115.873 221.835 116.868 220.008 115.447 219.221C114.026 218.433 112.475 220.315 111.623 220.916C110.77 221.518 92.9282 232.433 92.3599 234.139C91.7916 235.846 92.3599 239.608 96.1841 240.024C100.008 240.439 103.406 238.066 105.111 237.672C106.816 237.278 107.479 237.147 107.479 237.147L119.236 222.491L115.873 221.835Z" fill="white" stroke="#263238" stroke-linecap="round" stroke-linejoin="round"/>
<path d="M96.1834 240.034C100.008 240.428 103.406 238.076 105.11 237.683C106.815 237.289 107.478 237.158 107.478 237.158L107.905 236.622L96.8582 234.544C96.2577 234.021 95.4855 233.699 94.6641 233.627C93.8427 233.556 93.0191 233.74 92.3236 234.15C91.7909 235.834 92.3592 239.63 96.1834 240.034Z" fill="white" stroke="#263238" stroke-linecap="round" stroke-linejoin="round"/>
<path d="M96.8945 234.566H130.045C140.393 234.566 143.507 234.041 143.507 234.041L149.877 221.868C149.877 221.868 129.749 223.049 123.534 222.656C120.965 222.587 118.407 222.324 115.885 221.868L96.8945 234.566Z" fill="white" stroke="#263238" stroke-linecap="round" stroke-linejoin="round"/>
<path d="M96.8945 234.566L97.4628 236.918C97.4628 236.918 124.374 237.049 131.454 237.049C138.534 237.049 143.921 237.311 143.921 237.311L143.495 234.03L96.8945 234.566Z" fill="white" stroke="#263238" stroke-linecap="round" stroke-linejoin="round"/>
<path d="M143.92 237.278L149.864 224.711V221.835L143.494 234.008L143.92 237.278Z" fill="white" stroke="#263238" stroke-linecap="round" stroke-linejoin="round"/>
<path d="M239.538 251.979H158.377C158.198 251.98 158.019 251.949 157.853 251.886C157.686 251.823 157.535 251.731 157.407 251.614C157.279 251.497 157.178 251.358 157.109 251.205C157.04 251.051 157.004 250.887 157.004 250.721C157.004 250.555 157.04 250.39 157.109 250.237C157.178 250.084 157.279 249.944 157.407 249.827C157.535 249.711 157.686 249.618 157.853 249.556C158.019 249.493 158.198 249.461 158.377 249.463H239.538C239.717 249.461 239.895 249.493 240.061 249.556C240.227 249.618 240.377 249.711 240.504 249.828C240.631 249.945 240.731 250.084 240.799 250.238C240.867 250.391 240.901 250.555 240.899 250.721C240.901 250.886 240.867 251.051 240.799 251.204C240.731 251.357 240.631 251.496 240.504 251.613C240.377 251.73 240.227 251.823 240.061 251.886C239.895 251.948 239.717 251.98 239.538 251.979Z" fill="white" stroke="#263238" stroke-linecap="round" stroke-linejoin="round"/>
<path d="M240.224 249.44H157.679C157.377 249.44 157.086 249.334 156.866 249.143C156.646 248.952 156.513 248.69 156.495 248.412L152.008 198.592C151.987 198.438 152.003 198.281 152.053 198.133C152.104 197.985 152.188 197.848 152.3 197.732C152.412 197.617 152.549 197.524 152.703 197.461C152.857 197.398 153.023 197.366 153.192 197.367H244.724C244.892 197.366 245.058 197.398 245.212 197.461C245.366 197.524 245.503 197.617 245.615 197.732C245.727 197.848 245.811 197.985 245.862 198.133C245.912 198.281 245.928 198.438 245.907 198.592L241.42 248.412C241.402 248.692 241.268 248.955 241.045 249.147C240.822 249.338 240.529 249.443 240.224 249.44Z" fill="white" stroke="#263238" stroke-linecap="round" stroke-linejoin="round"/>
<path d="M206.742 224.263C206.742 227.238 203.249 229.644 198.952 229.644C194.654 229.644 191.149 227.238 191.149 224.263C191.149 221.288 194.642 218.893 198.952 218.893C203.261 218.893 206.742 221.299 206.742 224.263Z" fill="white" stroke="#263238" stroke-linecap="round" stroke-linejoin="round"/>
<path d="M287.405 185.349C288.671 184.437 289.561 183.151 289.927 181.707C290.193 180.624 290.165 179.496 289.844 178.426" stroke="#263238" stroke-linecap="round" stroke-linejoin="round"/>
<path d="M277.957 224.351C277.957 224.351 285.831 219.976 283.261 214.978C280.692 209.979 272.002 206.665 272.002 198.878C272.002 192.163 279.733 189.68 284.777 186.989" stroke="#263238" stroke-linecap="round" stroke-linejoin="round"/>
<path d="M285.226 224.209C285.226 224.209 289.619 221.508 289.619 217.22C289.619 214.344 286.292 212.462 281.899 207.836" stroke="#263238" stroke-linecap="round" stroke-linejoin="round"/>
<path d="M279.472 205.035C279.472 205.035 276.595 202.946 278.714 199.02" stroke="#263238" stroke-linecap="round" stroke-linejoin="round"/>
<path d="M212.815 90.4676C214.224 90.1941 217.243 89.1223 219.28 84.7583C219.311 84.6923 219.328 84.6211 219.33 84.549C219.331 84.4769 219.317 84.4053 219.289 84.3382C219.26 84.2711 219.217 84.2099 219.163 84.1581C219.109 84.1063 219.044 84.065 218.972 84.0364C218.827 83.9809 218.665 83.9795 218.519 84.0326C218.373 84.0856 218.255 84.189 218.191 84.3208C216.32 88.3239 213.644 89.2098 212.531 89.4066C214.523 87.1801 215.623 84.3873 215.645 81.499C215.645 73.9085 208.032 67.7617 198.643 67.7617C189.255 67.7617 181.642 73.9085 181.642 81.499C181.648 84.2708 182.647 86.9627 184.483 89.1551C182.696 89.0676 179.676 89.7676 175.852 93.8909C175.743 93.995 175.682 94.1343 175.682 94.2792C175.682 94.4242 175.743 94.5634 175.852 94.6675C175.962 94.7518 176.1 94.7982 176.243 94.7987C176.329 94.7988 176.414 94.7812 176.492 94.7471C176.57 94.7131 176.638 94.6635 176.693 94.6019C181.583 89.341 184.815 90.2269 185.466 90.4676C184.36 91.0293 183.324 91.7004 182.376 92.4691C176.918 97.0081 173.591 105.594 174.017 112.747C174.496 117.491 176.358 122.027 179.404 125.872C183.368 123.251 186.655 119.852 189.03 115.919C190.799 113.03 192.38 110.046 193.766 106.983C193.766 110.188 194.215 114.059 196.039 116.826C197.354 119.012 199.281 120.831 201.618 122.093C203.955 123.356 206.616 124.015 209.323 124.001C210.257 124.014 211.191 123.929 212.105 123.75C212.185 123.731 212.261 123.697 212.326 123.65C212.391 123.603 212.445 123.544 212.484 123.476C217.054 124.373 221.6 124.297 222.299 123.4C223.424 121.967 225.022 117.494 225.555 112.025C226.526 102.75 220.203 94.7003 212.815 90.4676ZM197.14 116.159C194.843 112.692 194.914 107.038 195.186 103.789L195.34 103.417C195.449 106.758 196.371 110.034 198.038 113.001C199.704 115.967 202.072 118.55 204.966 120.556C206.564 121.577 208.337 122.342 210.211 122.82C207.31 123.006 201.343 122.492 197.14 116.159Z" fill="#EE0000"/>
<path d="M197.341 98.9434C197.341 98.9434 196.371 105.571 205.487 112.068C214.604 118.565 223.246 116.006 223.246 116.006" stroke="white" stroke-width="0.5" stroke-linecap="round" stroke-linejoin="round"/>
<path d="M198.679 96.7559C198.679 96.7559 208.281 109.673 221.541 106.304" stroke="white" stroke-width="0.5" stroke-linecap="round" stroke-linejoin="round"/>
<path d="M193.931 92.4573C192.417 91.747 190.721 91.4346 189.027 91.5542C187.334 91.6738 185.709 92.2208 184.329 93.1354C179.226 96.2744 176.669 103.69 176.669 103.69" stroke="white" stroke-width="0.5" stroke-linecap="round" stroke-linejoin="round"/>
<path d="M194.18 96.0566C194.18 96.0566 190.048 95.0394 187.49 97.4019C186.244 98.4453 185.178 99.6588 184.329 101" stroke="white" stroke-width="0.5" stroke-linecap="round" stroke-linejoin="round"/>
<defs>
<filter id="filter0_d" x="7.41113" y="348.851" width="380.167" height="119.149" filterUnits="userSpaceOnUse" color-interpolation-filters="sRGB">
<feFlood flood-opacity="0" result="BackgroundImageFix"/>
<feColorMatrix in="SourceAlpha" type="matrix" values="0 0 0 0 0 0 0 0 0 0 0 0 0 0 0 0 0 0 127 0" result="hardAlpha"/>
<feOffset dy="14"/>
<feGaussianBlur stdDeviation="15"/>
<feComposite in2="hardAlpha" operator="out"/>
<feColorMatrix type="matrix" values="0 0 0 0 1 0 0 0 0 0.592157 0 0 0 0 0.462745 0 0 0 1 0"/>
<feBlend mode="normal" in2="BackgroundImageFix" result="effect1_dropShadow"/>
<feBlend mode="normal" in="SourceGraphic" in2="effect1_dropShadow" result="shape"/>
</filter>
</defs>
</svg>
