<svg width="528" height="328" viewBox="0 0 528 328" fill="none" xmlns="http://www.w3.org/2000/svg">
<path fill-rule="evenodd" clip-rule="evenodd" d="M74.4007 103.711C73.1689 104.548 72.0646 105.531 71.1168 106.632L66.9331 105.932L64.1502 111.841L67.601 114.112C67.3782 115.494 67.3595 116.896 67.5454 118.282L64.0481 120.486L66.6734 126.437L70.8757 125.821C71.7932 126.941 72.8728 127.944 74.0853 128.801L73.3246 132.617L79.8182 135.149L82.2765 131.984C83.8152 132.178 85.376 132.178 86.9147 131.984L89.3359 135.175L95.8295 132.786L95.1523 128.961C96.3862 128.127 97.4908 127.144 98.4362 126.04L102.62 126.733L105.403 120.823L101.961 118.552C102.165 117.151 102.165 115.732 101.961 114.331L105.468 112.229L102.843 106.32L98.6403 106.928C97.7202 105.809 96.6409 104.807 95.4306 103.948L96.1913 100.098L89.6977 97.5655L87.2023 100.698C85.6653 100.494 84.1052 100.48 82.564 100.655L80.1522 97.4727L73.6122 99.8618L74.2894 103.686L74.4007 103.711ZM81.6828 110.085C83.0686 109.579 84.5883 109.458 86.0497 109.737C87.511 110.017 88.8485 110.685 89.8929 111.656C90.9374 112.627 91.6419 113.859 91.9175 115.194C92.193 116.53 92.0272 117.91 91.4409 119.16C90.8547 120.41 89.8744 121.473 88.624 122.216C87.3736 122.959 85.9092 123.348 84.416 123.334C82.9227 123.319 81.4677 122.902 80.2349 122.135C79.0021 121.368 78.0468 120.286 77.4898 119.025C77.1199 118.188 76.9349 117.292 76.9454 116.389C76.9559 115.487 77.1617 114.595 77.5511 113.765C77.9405 112.934 78.5057 112.182 79.2147 111.551C79.9236 110.919 80.7623 110.421 81.6828 110.085Z" fill="#EBEBEB"/>
<path fill-rule="evenodd" clip-rule="evenodd" d="M462.78 129.4C460.556 130.915 458.563 132.692 456.852 134.685L449.283 133.427L444.282 144.081L450.553 148.217C450.154 150.718 450.126 153.257 450.47 155.764L444.143 159.741L448.884 170.496L456.444 169.322C458.104 171.35 460.057 173.165 462.251 174.717L460.869 181.605L472.576 186.206L477.084 180.533C479.832 180.895 482.621 180.924 485.377 180.618L489.756 186.367L501.574 182.036L500.359 175.122C502.583 173.607 504.576 171.83 506.287 169.837L513.847 171.095L518.847 160.441L512.613 156.339C513.011 153.838 513.042 151.3 512.706 148.791L519.023 144.84L514.274 134.094L506.686 135.208C505.018 133.184 503.066 131.367 500.879 129.805L502.261 122.891L490.554 118.341L486.036 124.014C483.288 123.652 480.499 123.624 477.743 123.93L473.374 118.172L461.555 122.494L462.78 129.4ZM475.934 140.932C478.44 140.015 481.189 139.795 483.832 140.3C486.476 140.805 488.895 142.012 490.785 143.768C492.675 145.525 493.949 147.751 494.448 150.167C494.947 152.583 494.647 155.079 493.586 157.34C492.526 159.601 490.753 161.525 488.491 162.868C486.229 164.211 483.58 164.914 480.879 164.887C478.178 164.861 475.546 164.106 473.317 162.718C471.088 161.33 469.361 159.371 468.355 157.09C467.009 154.032 467.052 150.614 468.472 147.584C469.893 144.555 472.577 142.163 475.934 140.932Z" fill="#EBEBEB"/>
<path fill-rule="evenodd" clip-rule="evenodd" d="M493.838 75.4722C492.609 76.3095 491.508 77.2917 490.563 78.3931L486.379 77.7009L483.596 83.6103L487.038 85.8812C486.83 87.2818 486.83 88.7016 487.038 90.1022L483.541 92.3056L486.166 98.215L490.359 97.5987C491.282 98.7199 492.365 99.7249 493.578 100.587L492.808 104.395L499.302 106.927L501.797 103.795C503.318 103.977 504.859 103.977 506.38 103.795L508.801 106.978L515.294 104.589L514.617 100.764C515.848 99.9294 516.95 98.9469 517.892 97.8435L522.085 98.5358L524.868 92.6264L521.417 90.3555C521.641 88.971 521.657 87.565 521.463 86.1767L524.97 83.9818L522.344 78.0301L518.142 78.6464C517.222 77.5254 516.143 76.5205 514.933 75.6579L515.693 71.8506L509.2 69.318L506.704 72.4584C505.168 72.2519 503.608 72.2349 502.066 72.4077L499.645 69.2251L493.151 71.6142L493.819 75.4384L493.838 75.4722ZM501.12 81.8459C502.506 81.3379 504.027 81.2153 505.49 81.4936C506.953 81.7718 508.293 82.4385 509.34 83.4093C510.386 84.3801 511.094 85.6115 511.372 86.9479C511.65 88.2843 511.486 89.6657 510.902 90.9177C510.318 92.1696 509.339 93.2359 508.089 93.9818C506.839 94.7277 505.375 95.1197 503.88 95.1083C502.386 95.0969 500.928 94.6827 499.692 93.9179C498.456 93.153 497.497 92.072 496.936 90.8113C496.563 89.9728 496.375 89.0755 496.383 88.1707C496.392 87.266 496.596 86.3717 496.985 85.5389C497.373 84.7062 497.938 83.9513 498.648 83.3176C499.358 82.6839 500.198 82.1838 501.12 81.8459Z" fill="#F0F0F0"/>
<path fill-rule="evenodd" clip-rule="evenodd" d="M408.633 28.5851C405.039 29.7872 401.638 31.4226 398.522 33.4477L389.059 29.0748L377.853 41.3664L384.347 49.0233C382.741 52.1875 381.602 55.5315 380.961 58.968L370.887 61.9649L372.51 77.8696L383.03 79.1191C384.351 82.3926 386.148 85.4903 388.373 88.3293L383.568 96.9402L397.084 107.138L405.488 101.229C408.958 102.695 412.626 103.734 416.397 104.318L419.691 113.495L437.168 112.009L438.494 102.453C442.088 101.251 445.489 99.6153 448.605 97.5902L458.068 101.955L469.274 89.6631L462.78 82.0062C464.386 78.842 465.525 75.498 466.166 72.0615L476.24 69.0646L474.673 53.1599L464.153 51.9104C462.837 48.6356 461.046 45.5354 458.828 42.6917L463.633 34.0893L450.118 23.8914L441.713 29.8008C438.236 28.3312 434.557 27.2948 430.776 26.7194L427.483 17.543L410.006 19.0541L408.633 28.6273V28.5851ZM421.045 48.5252C424.754 48.2108 428.481 48.9043 431.757 50.518C435.032 52.1318 437.708 54.5932 439.447 57.5911C441.185 60.589 441.907 63.9887 441.522 67.3602C441.137 70.7316 439.662 73.9235 437.284 76.532C434.905 79.1405 431.73 81.0486 428.16 82.0149C424.59 82.9811 420.785 82.9622 417.226 81.9604C413.668 80.9587 410.516 79.0191 408.169 76.3871C405.822 73.755 404.386 70.5487 404.041 67.1736C403.811 64.9329 404.069 62.673 404.799 60.5229C405.529 58.3728 406.718 56.3748 408.297 54.643C409.876 52.9111 411.815 51.4794 414.002 50.4297C416.189 49.38 418.583 48.7328 421.045 48.5252Z" fill="#E0E0E0"/>
<path d="M481.993 291.731C470.416 284.834 467.475 271.622 467.596 259.652C467.596 257.659 467.317 255.566 468.328 253.793C469.339 252.02 471.761 250.779 473.774 251.573C475.434 252.231 476.195 253.936 477.16 255.338C478.446 257.214 480.288 258.721 482.475 259.685C483.904 260.31 485.657 260.673 487.03 259.956C488.885 258.968 489.08 256.579 489.015 254.612C488.885 250.92 488.761 247.231 488.644 243.544C488.454 241.563 488.623 239.566 489.145 237.635C489.421 236.679 489.946 235.796 490.673 235.062C491.401 234.328 492.312 233.763 493.329 233.414C495.416 232.84 498.032 233.87 498.533 235.795C498.637 236.613 498.68 237.436 498.663 238.26C498.661 238.673 498.794 239.077 499.045 239.421C499.296 239.765 499.654 240.034 500.073 240.193C500.529 240.231 500.988 240.163 501.406 239.994C501.825 239.826 502.19 239.563 502.466 239.23C504.578 237.081 506.289 234.631 507.531 231.979C508.771 229.33 510.353 226.825 512.243 224.516C514.247 222.287 517.058 220.498 520.212 220.295C523.366 220.092 526.77 221.747 527.633 224.516C528.496 227.285 526.77 230.164 524.85 232.46C522.008 235.883 518.637 238.915 514.841 241.459C514.102 241.847 513.517 242.438 513.171 243.148C512.735 244.481 514.164 245.756 515.62 246.161C517.28 246.617 519.062 246.423 520.778 246.567C522.494 246.71 524.386 247.352 525.073 248.795C526 250.804 524.201 252.966 522.392 254.392C518.743 257.263 514.583 259.547 510.091 261.146C508.435 261.597 506.882 262.318 505.509 263.273C504.228 264.32 503.486 266.118 504.312 267.494C505.138 268.87 507.178 269.276 508.876 268.955C510.513 268.511 512.105 267.941 513.635 267.25C516.64 266.16 520.555 266.262 522.559 268.575C523.178 269.365 523.584 270.276 523.745 271.235C523.906 272.194 523.818 273.174 523.486 274.096C522.794 275.93 521.702 277.618 520.277 279.06C515.599 284.359 509.464 288.436 502.494 290.879C495.527 293.226 489.024 293.96 481.983 291.816" fill="#FF9776"/>
<path d="M524.387 221.908L524.173 222.102L523.533 222.634C522.967 223.106 522.142 223.799 521.094 224.719C518.135 227.312 515.394 230.103 512.893 233.068C511.307 234.934 509.656 237.053 507.93 239.349C506.205 241.645 504.396 244.127 502.587 246.786C500.679 249.555 498.942 252.419 497.383 255.363C496.566 256.891 495.852 258.495 495.129 260.125C494.405 261.754 493.663 263.409 492.921 265.088C490.077 271.361 487.627 277.776 485.583 284.303C483.938 289.639 482.854 295.106 482.346 300.629C482.013 304.353 482.044 308.096 482.438 311.815C482.587 313.124 482.726 314.145 482.846 314.837C482.902 315.167 482.939 315.428 482.976 315.622C482.983 315.712 482.983 315.803 482.976 315.893C482.945 315.807 482.92 315.72 482.902 315.631C482.902 315.437 482.809 315.175 482.744 314.846C482.596 314.162 482.429 313.157 482.253 311.832C481.798 308.106 481.724 304.351 482.03 300.612C482.496 295.067 483.556 289.576 485.193 284.218C487.223 277.671 489.667 271.236 492.513 264.945C493.267 263.257 494.003 261.605 494.72 259.989C495.453 258.36 496.177 256.748 496.993 255.203C498.567 252.249 500.32 249.377 502.244 246.6C504.099 243.941 505.899 241.476 507.624 239.18C509.349 236.884 511.029 234.773 512.643 232.907C515.181 229.948 517.973 227.176 520.992 224.617C522.058 223.714 522.912 223.03 523.496 222.583L524.155 222.068C524.303 221.958 524.377 221.899 524.387 221.908Z" fill="#263238"/>
<path d="M497.132 255.187C497.022 254.914 496.944 254.631 496.9 254.343C496.771 253.794 496.604 253.009 496.427 252.022C496.066 250.055 495.657 247.328 495.231 244.322C494.804 241.317 494.359 238.599 493.96 236.64C493.765 235.669 493.598 234.876 493.477 234.327C493.394 234.052 493.344 233.768 493.329 233.483C493.469 233.752 493.572 234.035 493.635 234.327C493.802 234.859 494.015 235.644 494.247 236.615C494.711 238.565 495.175 241.283 495.63 244.297C496.084 247.311 496.427 249.953 496.706 252.013C496.845 252.933 496.965 253.702 497.049 254.343C497.113 254.621 497.141 254.904 497.132 255.187Z" fill="#263238"/>
<path d="M525.342 249.818C524.973 249.897 524.598 249.945 524.219 249.961C523.496 250.037 522.438 250.138 521.149 250.307C518.561 250.611 514.998 251.151 511.102 251.894C507.206 252.637 503.681 253.473 501.204 254.123C499.943 254.444 498.931 254.731 498.236 254.925C497.879 255.046 497.509 255.134 497.132 255.187C497.471 255.032 497.821 254.9 498.18 254.79C498.867 254.554 499.868 254.233 501.121 253.878C503.616 253.152 507.113 252.291 511.019 251.54C514.353 250.887 517.722 250.389 521.112 250.045C522.42 249.91 523.477 249.851 524.201 249.826C524.58 249.788 524.962 249.785 525.342 249.818Z" fill="#263238"/>
<path d="M485.555 283.738C485.472 283.645 485.404 283.543 485.351 283.434L484.84 282.522C484.404 281.729 483.801 280.572 483.078 279.146C481.631 276.258 479.775 272.215 477.8 267.732C475.824 263.249 473.996 259.189 472.623 256.285L470.981 252.84L470.536 251.903C470.443 251.684 470.397 251.565 470.415 251.565C470.492 251.66 470.557 251.762 470.61 251.869L471.12 252.781C471.566 253.575 472.159 254.731 472.883 256.158C474.33 259.045 476.185 263.089 478.171 267.572C480.156 272.054 481.965 276.115 483.347 279.019C484.015 280.437 484.571 281.602 484.989 282.463L485.425 283.4C485.484 283.507 485.528 283.621 485.555 283.738Z" fill="#263238"/>
<path d="M522.911 272.021C522.911 272.021 522.791 272.088 522.549 272.173L521.464 272.519L517.457 273.785C514.08 274.849 509.432 276.368 504.302 278.057C499.173 279.745 494.506 281.223 491.102 282.227C489.395 282.734 488.022 283.122 487.057 283.375L485.953 283.662C485.694 283.73 485.555 283.755 485.555 283.738C485.672 283.679 485.797 283.631 485.926 283.595L487.011 283.24L491.009 281.982C494.386 280.919 499.033 279.399 504.163 277.711C509.293 276.022 513.969 274.536 517.364 273.532C519.071 273.034 520.453 272.637 521.408 272.384L522.522 272.097C522.648 272.06 522.779 272.034 522.911 272.021Z" fill="#263238"/>
<path d="M105.542 202.651L161.508 202.414C163.109 202.411 164.695 202.12 166.172 201.557C167.65 200.995 168.991 200.172 170.119 199.137C171.246 198.102 172.138 196.874 172.742 195.524C173.347 194.174 173.652 192.729 173.641 191.271L173.048 63.9399C173.039 62.4847 172.716 61.0452 172.095 59.7038C171.475 58.3624 170.571 57.1454 169.434 56.1223C168.297 55.0992 166.949 54.29 165.468 53.7411C163.987 53.1921 162.402 52.9142 160.803 52.9231L104.837 53.151C101.609 53.1622 98.518 54.3381 96.2416 56.4209C93.9651 58.5036 92.6894 61.3231 92.6944 64.2607L93.2881 191.6C93.2929 193.059 93.614 194.502 94.2329 195.847C94.8519 197.193 95.7564 198.413 96.8948 199.44C98.0332 200.467 99.3831 201.279 100.867 201.83C102.351 202.381 103.94 202.66 105.542 202.651Z" fill="#455A64"/>
<path d="M104.911 57.5831H115.765C116.117 57.5875 116.466 57.6552 116.79 57.7825C117.114 57.9097 117.407 58.0939 117.653 58.3245C117.898 58.5551 118.092 58.8275 118.221 59.1262C118.351 59.4249 118.414 59.744 118.408 60.0651V61.8548C118.401 62.5028 118.674 63.1275 119.169 63.5936C119.664 64.0596 120.34 64.3297 121.052 64.3452L142.212 64.2523C142.567 64.2447 142.917 64.1729 143.242 64.041C143.566 63.9092 143.859 63.7199 144.102 63.4842C144.346 63.2486 144.535 62.9712 144.66 62.6683C144.784 62.3653 144.841 62.0429 144.828 61.7197V59.9131C144.816 59.5902 144.874 59.2682 144.999 58.9658C145.124 58.6634 145.313 58.3864 145.556 58.151C145.799 57.9156 146.091 57.7263 146.415 57.594C146.739 57.4618 147.089 57.3892 147.444 57.3805H151.266H160.765C161.884 57.3749 162.994 57.5701 164.031 57.9549C165.068 58.3396 166.011 58.9064 166.807 59.6229C167.603 60.3394 168.236 61.1916 168.67 62.1307C169.104 63.0699 169.33 64.0777 169.336 65.0965L169.921 189.388C169.926 191.447 169.033 193.423 167.438 194.882C165.843 196.342 163.676 197.165 161.414 197.172L105.56 197.408C103.299 197.417 101.126 196.61 99.518 195.164C97.9096 193.718 96.9967 191.75 96.9796 189.692L96.4044 65.4004C96.3959 64.378 96.6095 63.3642 97.0329 62.4172C97.4563 61.4702 98.0813 60.6087 98.8718 59.8823C99.6623 59.1558 100.603 58.5787 101.639 58.1841C102.676 57.7896 103.788 57.5853 104.911 57.5831Z" fill="white"/>
<path d="M105.829 142.156H161.099V145.524H105.829V142.156Z" fill="#455A64"/>
<path d="M107.796 155.401C107.796 155.519 119.596 155.621 134.141 155.621C148.687 155.621 160.496 155.519 160.496 155.401C160.496 155.283 148.696 155.182 134.141 155.182C119.587 155.182 107.796 155.283 107.796 155.401Z" fill="#455A64"/>
<path d="M107.796 75.6162C107.796 75.7428 119.596 75.8357 134.141 75.8357C148.687 75.8357 160.496 75.7428 160.496 75.6162C160.496 75.4896 148.696 75.3967 134.141 75.3967C119.587 75.3967 107.796 75.4727 107.796 75.6162Z" fill="#455A64"/>
<path d="M107.796 161.53C107.796 161.648 119.596 161.749 134.141 161.749C148.687 161.749 160.496 161.648 160.496 161.53C160.496 161.412 148.696 161.31 134.141 161.31C119.587 161.31 107.796 161.403 107.796 161.53Z" fill="#455A64"/>
<path d="M107.796 167.634C107.796 167.752 119.596 167.853 134.141 167.853C148.687 167.853 160.496 167.752 160.496 167.634C160.496 167.515 148.696 167.414 134.141 167.414C119.587 167.414 107.796 167.532 107.796 167.634Z" fill="#455A64"/>
<path d="M107.796 173.779C107.796 173.897 119.596 173.999 134.141 173.999C148.687 173.999 160.496 173.897 160.496 173.779C160.496 173.661 148.696 173.56 134.141 173.56C119.587 173.56 107.796 173.652 107.796 173.779Z" fill="#455A64"/>
<path d="M107.796 179.9C107.796 180.026 119.596 180.119 134.141 180.119C148.687 180.119 160.496 180.026 160.496 179.9C160.496 179.773 148.696 179.68 134.141 179.68C119.587 179.68 107.796 179.781 107.796 179.9Z" fill="#455A64"/>
<path d="M107.045 186.848C107.045 186.966 118.845 187.068 133.391 187.068C147.936 187.068 159.745 186.966 159.745 186.848C159.745 186.73 147.945 186.629 133.391 186.629C118.836 186.629 107.045 186.722 107.045 186.848Z" fill="#455A64"/>
<path d="M105.087 82.5801H160.496V131.367H105.087V82.5801Z" fill="#E0E0E0"/>
<path d="M156.201 127.188L140.867 102.081L128.335 118.129L120.718 109.603L109.383 127.188H156.201Z" fill="#FF9776"/>
<path d="M122.991 97.2009C122.991 97.9188 123.225 98.6207 123.663 99.2176C124.102 99.8146 124.724 100.28 125.453 100.555C126.182 100.829 126.984 100.901 127.758 100.761C128.532 100.621 129.243 100.275 129.8 99.7677C130.358 99.26 130.738 98.6132 130.892 97.9091C131.046 97.2049 130.967 96.475 130.665 95.8117C130.363 95.1484 129.852 94.5814 129.196 94.1826C128.54 93.7837 127.769 93.5708 126.98 93.5708C125.923 93.573 124.91 93.9562 124.162 94.6365C123.414 95.3168 122.993 96.2388 122.991 97.2009Z" fill="#FF9776"/>
<path d="M109.382 127.323C109.382 127.323 109.382 127.255 109.382 127.12C109.382 126.985 109.382 126.791 109.382 126.554C109.382 126.031 109.382 125.305 109.382 124.359C109.382 122.426 109.382 119.623 109.447 116.069C109.447 108.944 109.512 98.797 109.558 86.6151L109.336 86.8177H156.145C156.21 86.8684 155.654 86.3619 155.885 86.5814V97.556C155.885 101.144 155.885 104.656 155.885 108.066C155.885 114.904 155.885 121.362 155.885 127.306L156.117 127.095L122.267 127.204L112.713 127.255H110.18H109.531H109.299H109.503H110.134H112.62L122.119 127.306L156.117 127.415H156.349V127.204C156.349 121.295 156.349 114.803 156.349 107.965C156.349 104.588 156.349 101.043 156.349 97.4547V86.48C156.59 86.6911 156.034 86.1761 156.08 86.2352H109.271H109.178V86.5898C109.234 98.8307 109.271 109.02 109.299 116.179C109.299 119.708 109.299 122.494 109.354 124.418C109.354 125.347 109.354 126.065 109.354 126.571C109.354 126.799 109.354 126.976 109.354 127.12C109.353 127.188 109.362 127.257 109.382 127.323Z" fill="#455A64"/>
<path d="M396.343 9.75047V122.215C396.343 127.6 391.546 131.966 385.628 131.966H198.948C193.03 131.966 188.233 127.6 188.233 122.215V9.75047C188.233 4.36539 193.03 -6.10352e-05 198.948 -6.10352e-05H385.628C391.546 -6.10352e-05 396.343 4.36539 396.343 9.75047Z" fill="#455A64"/>
<path d="M382.112 4.16192V127.804L208.317 127.804V4.16192L382.112 4.16192Z" fill="white"/>
<path d="M198.697 60.918C197.596 60.918 196.52 61.215 195.605 61.7716C194.689 62.3282 193.976 63.1193 193.555 64.0448C193.133 64.9704 193.023 65.9888 193.238 66.9714C193.453 67.9539 193.983 68.8564 194.761 69.5648C195.539 70.2732 196.531 70.7556 197.611 70.9511C198.691 71.1465 199.81 71.0462 200.827 70.6628C201.844 70.2794 202.713 69.6302 203.325 68.7972C203.936 67.9643 204.263 66.985 204.263 65.9832C204.263 64.6398 203.676 63.3515 202.632 62.4015C201.589 61.4516 200.173 60.918 198.697 60.918Z" fill="#263238"/>
<path d="M390.35 47.1404V84.8255C390.35 85.3944 389.843 85.8555 389.218 85.8555H389.181C388.556 85.8555 388.049 85.3944 388.049 84.8255V47.1404C388.049 46.5716 388.556 46.1104 389.181 46.1104H389.218C389.843 46.1104 390.35 46.5716 390.35 47.1404Z" fill="#263238"/>
<path d="M247.565 13.4487H302.835V16.8171H247.565V13.4487Z" fill="#455A64"/>
<path d="M319.561 71.3008H374.83V74.6692H319.561V71.3008Z" fill="#455A64"/>
<path d="M234.105 25.9768C234.105 26.1035 249.486 26.1963 268.428 26.1963C287.371 26.1963 302.798 26.1035 302.798 25.9768C302.798 25.8502 287.417 25.7573 268.428 25.7573C249.439 25.7573 234.105 25.8586 234.105 25.9768Z" fill="#455A64"/>
<path d="M234.105 33.3301C234.105 33.4483 249.486 33.5496 268.428 33.5496C287.371 33.5496 302.798 33.4483 302.798 33.3301C302.798 33.2119 287.417 33.1106 268.428 33.1106C249.439 33.1106 234.105 33.2035 234.105 33.3301Z" fill="#455A64"/>
<path d="M234.105 40.6741C234.105 40.7923 249.486 40.8936 268.428 40.8936C287.371 40.8936 302.798 40.7923 302.798 40.6741C302.798 40.5559 287.417 40.4546 268.428 40.4546C249.439 40.4546 234.105 40.5559 234.105 40.6741Z" fill="#455A64"/>
<path d="M234.105 48.0183C234.105 48.145 249.486 48.2378 268.428 48.2378C287.371 48.2378 302.798 48.145 302.798 48.0183C302.798 47.8917 287.417 47.7988 268.428 47.7988C249.439 47.7988 234.105 47.9001 234.105 48.0183Z" fill="#455A64"/>
<path d="M234.105 55.3545C234.105 55.4727 249.486 55.574 268.428 55.574C287.371 55.574 302.798 55.4727 302.798 55.3545C302.798 55.2363 287.417 55.135 268.428 55.135C249.439 55.135 234.105 55.2448 234.105 55.3545Z" fill="#455A64"/>
<path d="M249.18 62.7166C249.18 62.8347 261.193 62.936 276.007 62.936C290.822 62.936 302.835 62.8347 302.835 62.7166C302.835 62.5984 290.831 62.4971 276.007 62.4971C261.183 62.4971 249.18 62.5984 249.18 62.7166Z" fill="#455A64"/>
<path d="M284.06 84.5471C284.06 84.6653 304.245 84.7666 329.144 84.7666C354.042 84.7666 374.228 84.6653 374.228 84.5471C374.228 84.4289 354.042 84.3276 329.144 84.3276C304.245 84.3276 284.06 84.4205 284.06 84.5471Z" fill="#455A64"/>
<path d="M284.06 90.6677C284.06 90.7944 304.245 90.8872 329.144 90.8872C354.042 90.8872 374.228 90.7944 374.228 90.6677C374.228 90.5411 354.042 90.4482 329.144 90.4482C304.245 90.4482 284.06 90.5495 284.06 90.6677Z" fill="#455A64"/>
<path d="M284.06 96.7974C284.06 96.9156 304.245 97.0169 329.144 97.0169C354.042 97.0169 374.228 96.9156 374.228 96.7974C374.228 96.6792 354.042 96.5779 329.144 96.5779C304.245 96.5779 284.06 96.6707 284.06 96.7974Z" fill="#455A64"/>
<path d="M284.06 102.917C284.06 103.044 304.245 103.137 329.144 103.137C354.042 103.137 374.228 103.044 374.228 102.917C374.228 102.79 354.042 102.698 329.144 102.698C304.245 102.698 284.06 102.799 284.06 102.917Z" fill="#455A64"/>
<path d="M284.06 109.047C284.06 109.165 304.245 109.266 329.144 109.266C354.042 109.266 374.228 109.165 374.228 109.047C374.228 108.928 354.042 108.827 329.144 108.827C304.245 108.827 284.06 108.928 284.06 109.047Z" fill="#455A64"/>
<path d="M318.819 11.717H374.228V60.5035H318.819V11.717Z" fill="#FF9776"/>
<path d="M369.933 56.3346L354.599 31.228L342.066 47.2678L334.45 38.7499L323.114 56.3346H369.933Z" fill="#E0E0E0"/>
<path d="M336.722 26.3394C336.721 27.0577 336.953 27.7604 337.39 28.3585C337.827 28.9565 338.45 29.4231 339.178 29.6992C339.907 29.9752 340.709 30.0483 341.484 29.9092C342.258 29.7701 342.97 29.425 343.529 28.9177C344.087 28.4103 344.468 27.7635 344.623 27.0592C344.778 26.3548 344.699 25.6244 344.397 24.9606C344.096 24.2968 343.585 23.7294 342.928 23.3301C342.272 22.9309 341.501 22.7178 340.711 22.7178C339.655 22.7178 338.642 23.0991 337.894 23.778C337.146 24.457 336.725 25.3781 336.722 26.3394Z" fill="#E0E0E0"/>
<path d="M323.113 56.4688C323.113 56.4688 323.113 56.3929 323.113 56.2662C323.113 56.1396 323.113 55.937 323.113 55.7006C323.113 55.1772 323.113 54.4428 323.113 53.5057C323.113 51.564 323.113 48.7697 323.169 45.2156C323.169 38.0906 323.234 27.9433 323.28 15.7614L323.058 15.964H369.867C369.932 16.0147 369.375 15.5166 369.607 15.7361V21.2487C369.607 23.0722 369.607 24.8872 369.607 26.677V37.1873C369.607 44.0253 369.607 50.4834 369.607 56.4266L369.839 56.2156L335.989 56.3169L326.443 56.376H323.911H323.252H323.02H323.225H323.855H326.341L335.841 56.4351L369.839 56.5364H370.071V56.3253C370.071 50.4159 370.071 43.924 370.071 37.086C370.071 33.6698 370.071 30.1663 370.071 26.5757V15.601C370.312 15.8121 369.756 15.2971 369.802 15.3478H322.993H322.761V15.5588C322.807 27.7913 322.844 37.9893 322.872 45.1481C322.872 48.6769 322.918 51.4627 322.928 53.3875C322.928 54.3077 322.928 55.0759 322.928 55.5402C322.928 55.7682 322.928 55.9454 322.928 56.089C322.934 56.2324 323.001 56.3682 323.113 56.4688Z" fill="#455A64"/>
<path d="M232.408 77.769H271.62V112.297H232.408V77.769Z" fill="#FF9776"/>
<path d="M268.577 109.342L257.733 91.5803L248.855 102.935L243.466 96.8988L235.451 109.342H268.577Z" fill="#E0E0E0"/>
<path d="M245.08 88.119C245.08 88.6199 245.243 89.1096 245.549 89.5261C245.854 89.9425 246.289 90.2671 246.798 90.4588C247.306 90.6505 247.866 90.7007 248.405 90.6029C248.945 90.5052 249.441 90.264 249.83 89.9098C250.22 89.5556 250.485 89.1044 250.592 88.6131C250.699 88.1218 250.644 87.6126 250.434 87.1498C250.223 86.6871 249.866 86.2915 249.409 86.0133C248.951 85.735 248.413 85.5864 247.863 85.5864C247.124 85.5864 246.417 85.8532 245.895 86.3282C245.373 86.8032 245.08 87.4473 245.08 88.119Z" fill="#E0E0E0"/>
<path d="M235.45 109.435C235.45 109.435 235.45 109.384 235.45 109.3C235.45 109.215 235.45 109.063 235.45 108.894C235.45 108.523 235.45 108.05 235.45 107.341C235.45 105.973 235.45 103.964 235.45 101.432C235.45 96.3665 235.497 89.2077 235.534 80.5884L235.376 80.7319H268.502C268.549 80.7319 268.15 80.4111 268.317 80.5715V88.3212C268.317 90.8538 268.317 93.333 268.317 95.7587C268.317 100.596 268.317 105.163 268.317 109.367L268.475 109.224L244.615 109.384H237.862H236.062H235.441C235.441 109.384 235.487 109.384 235.58 109.384H236.025H237.788L244.513 109.426L268.567 109.502H268.734V109.35C268.734 105.129 268.734 100.579 268.734 95.7418V80.6812C268.901 80.8247 268.502 80.4617 268.54 80.5039H235.413H235.246V80.6475C235.246 89.309 235.311 96.5184 235.33 101.584C235.33 104.116 235.33 106.058 235.376 107.417C235.376 108.076 235.376 108.582 235.376 108.945C235.376 109.105 235.376 109.232 235.376 109.333C235.376 109.435 235.441 109.443 235.45 109.435Z" fill="#455A64"/>
<path d="M204.179 145.304H468.05C475.514 145.304 481.565 150.811 481.565 157.604V308.067C481.565 314.86 475.514 320.367 468.05 320.367H204.179C196.714 320.367 190.663 314.86 190.663 308.067V157.604C190.663 150.811 196.714 145.304 204.179 145.304Z" fill="#263238"/>
<path d="M493.727 307.424H178.557V307.72C178.557 311.705 180.296 315.527 183.393 318.345C186.49 321.163 190.69 322.746 195.069 322.746H477.214C481.594 322.746 485.794 321.163 488.89 318.345C491.987 315.527 493.727 311.705 493.727 307.72V307.424Z" fill="#263238"/>
<path d="M199.28 152.261H473.754V300.097H199.28V152.261Z" fill="#E0E0E0"/>
<path d="M364.792 307.424L360.877 313.089H305.849L302.213 307.424H364.792Z" fill="#455A64"/>
<path d="M211.896 162.113H464.598V300.047H211.896V162.113Z" fill="#FAFAFA"/>
<path d="M453.809 168.908C453.807 169.291 453.93 169.665 454.162 169.984C454.395 170.304 454.726 170.553 455.114 170.7C455.502 170.848 455.929 170.887 456.342 170.814C456.755 170.74 457.134 170.557 457.432 170.287C457.73 170.017 457.933 169.672 458.016 169.297C458.099 168.922 458.057 168.532 457.897 168.179C457.736 167.825 457.464 167.523 457.114 167.31C456.765 167.097 456.354 166.983 455.933 166.983C455.372 166.983 454.833 167.186 454.434 167.547C454.036 167.907 453.811 168.397 453.809 168.908Z" fill="#455A64"/>
<path d="M445.164 168.908C445.163 169.291 445.286 169.666 445.519 169.985C445.751 170.305 446.083 170.554 446.472 170.701C446.86 170.848 447.288 170.887 447.701 170.813C448.114 170.739 448.493 170.554 448.791 170.284C449.089 170.013 449.291 169.667 449.373 169.292C449.454 168.916 449.412 168.527 449.25 168.173C449.088 167.819 448.814 167.517 448.463 167.306C448.112 167.094 447.7 166.982 447.28 166.983C446.719 166.983 446.181 167.186 445.784 167.547C445.387 167.908 445.164 168.398 445.164 168.908Z" fill="#455A64"/>
<path d="M436.509 168.908C436.507 169.291 436.63 169.665 436.863 169.985C437.095 170.304 437.426 170.553 437.814 170.7C438.202 170.848 438.63 170.887 439.042 170.814C439.455 170.74 439.834 170.557 440.132 170.287C440.43 170.017 440.634 169.672 440.716 169.297C440.799 168.922 440.758 168.533 440.597 168.179C440.436 167.825 440.164 167.523 439.815 167.31C439.465 167.097 439.054 166.983 438.634 166.983C438.355 166.982 438.079 167.031 437.821 167.127C437.564 167.224 437.329 167.365 437.132 167.544C436.935 167.723 436.778 167.936 436.671 168.17C436.564 168.404 436.509 168.655 436.509 168.908Z" fill="#455A64"/>
<path d="M211.896 177.351C211.896 177.477 268.483 177.57 338.242 177.57C408.002 177.57 464.598 177.477 464.598 177.351C464.598 177.224 408.011 177.131 338.242 177.131C268.473 177.131 211.896 177.232 211.896 177.351Z" fill="#455A64"/>
<path d="M190.662 307.542H481.564V308.387H190.662V307.542Z" fill="#455A64"/>
<path d="M388.614 244.372H443.884V247.74H388.614V244.372Z" fill="#455A64"/>
<path d="M317.223 197.654H372.492V201.022H317.223V197.654Z" fill="#455A64"/>
<path d="M235.014 210.19C235.014 210.308 265.794 210.41 303.753 210.41C341.713 210.41 372.492 210.308 372.492 210.19C372.492 210.072 341.722 209.962 303.753 209.962C265.784 209.962 235.014 210.063 235.014 210.19Z" fill="#455A64"/>
<path d="M235.014 217.534C235.014 217.652 265.794 217.753 303.753 217.753C341.713 217.753 372.492 217.652 372.492 217.534C372.492 217.416 341.722 217.314 303.753 217.314C265.784 217.314 235.014 217.441 235.014 217.534Z" fill="#455A64"/>
<path d="M235.014 224.88C235.014 225.007 265.794 225.1 303.753 225.1C341.713 225.1 372.492 225.007 372.492 224.88C372.492 224.754 341.722 224.661 303.753 224.661C265.784 224.661 235.014 224.762 235.014 224.88Z" fill="#455A64"/>
<path d="M235.014 232.233C235.014 232.351 265.794 232.452 303.753 232.452C341.713 232.452 372.492 232.351 372.492 232.233C372.492 232.114 341.722 232.005 303.753 232.005C265.784 232.005 235.014 232.106 235.014 232.233Z" fill="#455A64"/>
<path d="M235.014 239.576C235.014 239.695 265.794 239.796 303.753 239.796C341.713 239.796 372.492 239.695 372.492 239.576C372.492 239.458 341.722 239.357 303.753 239.357C265.784 239.357 235.014 239.45 235.014 239.576Z" fill="#455A64"/>
<path d="M318.828 246.921C318.828 247.039 330.841 247.14 345.655 247.14C360.47 247.14 372.492 247.039 372.492 246.921C372.492 246.802 360.433 246.701 345.655 246.701C330.878 246.701 318.828 246.802 318.828 246.921Z" fill="#455A64"/>
<path d="M236.025 261.18C236.025 261.307 256.257 261.399 281.201 261.399C306.146 261.399 326.378 261.307 326.378 261.18C326.378 261.053 306.155 260.96 281.201 260.96C256.247 260.96 236.025 261.062 236.025 261.18Z" fill="#455A64"/>
<path d="M236.025 268.98C236.025 269.098 256.257 269.199 281.201 269.199C306.146 269.199 326.378 269.098 326.378 268.98C326.378 268.862 306.155 268.76 281.201 268.76C256.247 268.76 236.025 268.862 236.025 268.98Z" fill="#455A64"/>
<path d="M236.025 276.78C236.025 276.898 256.257 277 281.201 277C306.146 277 326.378 276.898 326.378 276.78C326.378 276.662 306.155 276.561 281.201 276.561C256.247 276.561 236.025 276.654 236.025 276.78Z" fill="#455A64"/>
<path d="M236.025 284.582C236.025 284.7 256.257 284.801 281.201 284.801C306.146 284.801 326.378 284.7 326.378 284.582C326.378 284.463 306.155 284.362 281.201 284.362C256.247 284.362 236.025 284.455 236.025 284.582Z" fill="#455A64"/>
<path d="M388.476 260.437C388.476 260.555 400.535 260.656 415.377 260.656C430.22 260.656 442.279 260.555 442.279 260.437C442.279 260.318 430.22 260.217 415.377 260.217C400.535 260.217 388.476 260.31 388.476 260.437Z" fill="#455A64"/>
<path d="M388.476 266.557C388.476 266.684 400.535 266.777 415.377 266.777C430.22 266.777 442.279 266.684 442.279 266.557C442.279 266.43 430.22 266.338 415.377 266.338C400.535 266.338 388.476 266.405 388.476 266.557Z" fill="#455A64"/>
<path d="M388.476 272.686C388.476 272.804 400.535 272.905 415.377 272.905C430.22 272.905 442.279 272.804 442.279 272.686C442.279 272.568 430.22 272.466 415.377 272.466C400.535 272.466 388.476 272.568 388.476 272.686Z" fill="#455A64"/>
<path d="M388.476 278.806C388.476 278.933 400.535 279.026 415.377 279.026C430.22 279.026 442.279 278.933 442.279 278.806C442.279 278.68 430.22 278.587 415.377 278.587C400.535 278.587 388.476 278.688 388.476 278.806Z" fill="#455A64"/>
<path d="M388.476 284.977C388.476 285.096 400.535 285.197 415.377 285.197C430.22 285.197 442.279 285.096 442.279 284.977C442.279 284.859 430.22 284.758 415.377 284.758C400.535 284.758 388.476 284.817 388.476 284.977Z" fill="#455A64"/>
<path d="M388.475 186.662H443.884V235.448H388.475V186.662Z" fill="#E0E0E0"/>
<path d="M439.589 231.27L424.255 206.163L411.722 222.211L404.097 213.693L392.77 231.27H439.589Z" fill="#FF9776"/>
<path d="M406.379 201.284C406.379 202.002 406.613 202.704 407.051 203.301C407.489 203.898 408.112 204.363 408.841 204.638C409.57 204.912 410.372 204.984 411.146 204.844C411.92 204.704 412.63 204.358 413.188 203.851C413.746 203.343 414.126 202.696 414.28 201.992C414.434 201.288 414.355 200.558 414.053 199.895C413.751 199.231 413.24 198.664 412.584 198.266C411.928 197.867 411.156 197.654 410.368 197.654C409.31 197.654 408.295 198.036 407.547 198.717C406.799 199.398 406.379 200.321 406.379 201.284Z" fill="#FF9776"/>
<path d="M392.77 231.404C392.774 231.339 392.774 231.275 392.77 231.21C392.77 231.058 392.77 230.872 392.77 230.636C392.77 230.121 392.77 229.387 392.77 228.441C392.77 226.508 392.77 223.713 392.835 220.159C392.835 213.034 392.9 202.887 392.946 190.697L392.723 190.908H439.533C439.598 190.958 439.041 190.452 439.273 190.671V201.646C439.273 205.225 439.273 208.737 439.273 212.156C439.273 218.986 439.273 225.444 439.273 231.387L439.505 231.185L405.655 231.286L396.1 231.345H393.568H392.686C392.686 231.345 392.751 231.345 392.89 231.345H393.521H396.007L405.506 231.404L439.505 231.505H439.728V231.294C439.728 225.385 439.728 218.893 439.728 212.063C439.728 208.644 439.728 205.133 439.728 201.553V190.579L439.459 190.334H392.649H392.417V190.536C392.417 202.777 392.51 212.967 392.538 220.126C392.538 223.663 392.538 226.44 392.593 228.365C392.593 229.294 392.593 230.011 392.593 230.526C392.593 230.754 392.593 230.931 392.593 231.066C392.593 231.202 392.76 231.413 392.77 231.404Z" fill="#455A64"/>
<path d="M333.317 257.457H372.529V291.984H333.317V257.457Z" fill="#E0E0E0"/>
<path d="M369.486 289.03L358.642 271.268L349.764 282.622L344.375 276.586L336.351 289.03H369.486Z" fill="#FF9776"/>
<path d="M345.989 267.807C345.989 268.307 346.152 268.797 346.458 269.214C346.764 269.63 347.198 269.955 347.707 270.146C348.215 270.338 348.775 270.388 349.315 270.291C349.854 270.193 350.35 269.952 350.74 269.597C351.129 269.243 351.394 268.792 351.501 268.301C351.609 267.809 351.553 267.3 351.343 266.837C351.132 266.375 350.776 265.979 350.318 265.701C349.86 265.422 349.322 265.274 348.772 265.274C348.034 265.274 347.326 265.541 346.804 266.016C346.282 266.491 345.989 267.135 345.989 267.807Z" fill="#FF9776"/>
<path d="M336.35 289.13C336.354 289.083 336.354 289.035 336.35 288.987C336.35 288.886 336.35 288.751 336.35 288.582C336.35 288.219 336.35 287.737 336.35 287.028C336.35 285.661 336.35 283.652 336.397 281.161C336.397 276.096 336.397 268.937 336.471 260.318L336.313 260.461H369.449C369.449 260.461 369.096 260.14 369.263 260.301V275.497C369.263 280.334 369.263 284.901 369.263 289.114L369.43 288.962L345.469 289.038L338.716 289.08H336.925H338.688H345.404L369.467 289.156H369.625V289.012C369.625 284.791 369.625 280.233 369.625 275.395C369.625 272.981 369.625 270.49 369.625 267.958V260.225C369.792 260.368 369.403 260.005 369.44 260.048H336.304H336.146V260.191C336.146 268.853 336.211 276.062 336.23 281.136C336.23 283.668 336.23 285.602 336.23 286.961C336.23 287.619 336.23 288.126 336.23 288.489C336.23 288.649 336.23 288.776 336.23 288.877C336.252 288.968 336.292 289.054 336.35 289.13Z" fill="#455A64"/>
<path d="M149.729 216.306C149.364 219.425 146.41 221.778 143.312 222.836C140.214 223.894 136.857 224.086 133.692 224.998C130.527 225.91 127.314 227.643 126.221 230.598C124.945 234.018 126.816 238.086 125.08 241.315C123.775 243.723 120.811 244.963 119.258 247.207C117.464 249.834 117.934 253.327 119.095 256.255C120.618 260.202 123.367 263.616 126.979 266.042C130.608 268.455 135.059 269.48 139.447 268.915C146.055 267.948 151.369 263.123 154.956 257.76C159.314 251.405 161.533 243.938 161.315 236.353C161.035 228.738 157.651 221.526 151.877 216.242" fill="#FF9776"/>
<path d="M149.729 216.306C149.364 219.425 146.41 221.778 143.312 222.836C140.214 223.894 136.857 224.086 133.692 224.998C130.527 225.91 127.314 227.643 126.221 230.598C124.945 234.018 126.816 238.086 125.08 241.315C123.775 243.723 120.811 244.963 119.258 247.207C117.464 249.834 117.934 253.327 119.095 256.255C120.618 260.202 123.367 263.616 126.979 266.042C130.608 268.455 135.059 269.48 139.447 268.915C146.055 267.948 151.369 263.123 154.956 257.76C159.314 251.405 161.533 243.938 161.315 236.353C161.035 228.738 157.651 221.526 151.877 216.242" fill="#EE0000"/>
<path d="M122.183 237.047C122.151 236.693 121.974 236.366 121.691 236.136C121.407 235.905 121.039 235.79 120.667 235.815C120.247 235.865 119.852 236.038 119.538 236.309C119.224 236.58 119.006 236.936 118.912 237.329C118.754 237.851 118.716 238.399 118.8 238.935C118.885 239.472 119.09 239.985 119.401 240.44C119.751 241.007 120.254 241.475 120.857 241.796C121.461 242.116 122.144 242.278 122.835 242.264C123.598 242.249 124.343 242.041 124.993 241.662C125.674 241.245 126.208 240.645 126.528 239.938C127.136 238.342 127.249 236.613 126.854 234.958C126.385 233.13 126.213 231.244 126.345 229.367C126.495 228.388 126.904 227.462 127.535 226.676C128.155 225.932 128.925 225.312 129.798 224.852C131.437 224.021 133.24 223.524 135.093 223.393C136.838 223.219 138.497 223.201 140.022 223.046C141.436 222.934 142.826 222.627 144.147 222.134C146.066 221.376 147.749 220.164 149.038 218.613C149.94 217.519 150.266 216.789 150.314 216.789C150.259 216.974 150.182 217.151 150.083 217.318C149.824 217.798 149.525 218.259 149.192 218.696C147.94 220.315 146.258 221.59 144.319 222.39C142.972 222.916 141.549 223.248 140.099 223.375C138.555 223.548 136.896 223.584 135.179 223.767C133.392 223.903 131.655 224.391 130.076 225.199C129.238 225.61 128.513 226.202 127.958 226.927C127.403 227.652 127.035 228.491 126.882 229.376C126.752 231.214 126.92 233.06 127.381 234.849C127.78 236.593 127.644 238.411 126.988 240.084C126.625 240.866 126.024 241.527 125.262 241.981C124.54 242.394 123.715 242.614 122.873 242.62C122.088 242.628 121.315 242.433 120.639 242.054C120.023 241.694 119.507 241.2 119.133 240.613C118.807 240.114 118.598 239.555 118.521 238.972C118.443 238.39 118.498 237.799 118.682 237.238C118.798 236.799 119.058 236.407 119.423 236.117C119.788 235.827 120.241 235.654 120.715 235.624C121.013 235.631 121.303 235.714 121.555 235.863C121.808 236.012 122.015 236.222 122.154 236.472C122.243 236.653 122.253 236.859 122.183 237.047Z" fill="#FF9776"/>
<path opacity="0.7" d="M122.183 237.047C122.151 236.693 121.974 236.366 121.691 236.136C121.407 235.905 121.039 235.79 120.667 235.815C120.247 235.865 119.852 236.038 119.538 236.309C119.224 236.58 119.006 236.936 118.912 237.329C118.754 237.851 118.716 238.399 118.8 238.935C118.885 239.472 119.09 239.985 119.401 240.44C119.751 241.007 120.254 241.475 120.857 241.796C121.461 242.116 122.144 242.278 122.835 242.264C123.598 242.249 124.343 242.041 124.993 241.662C125.674 241.245 126.208 240.645 126.528 239.938C127.136 238.342 127.249 236.613 126.854 234.958C126.385 233.13 126.213 231.244 126.345 229.367C126.495 228.388 126.904 227.462 127.535 226.676C128.155 225.932 128.925 225.312 129.798 224.852C131.437 224.021 133.24 223.524 135.093 223.393C136.838 223.219 138.497 223.201 140.022 223.046C141.436 222.934 142.826 222.627 144.147 222.134C146.066 221.376 147.749 220.164 149.038 218.613C149.94 217.519 150.266 216.789 150.314 216.789C150.259 216.974 150.182 217.151 150.083 217.318C149.824 217.798 149.525 218.259 149.192 218.696C147.94 220.315 146.258 221.59 144.319 222.39C142.972 222.916 141.549 223.248 140.099 223.375C138.555 223.548 136.896 223.584 135.179 223.767C133.392 223.903 131.655 224.391 130.076 225.199C129.238 225.61 128.513 226.202 127.958 226.927C127.403 227.652 127.035 228.491 126.882 229.376C126.752 231.214 126.92 233.06 127.381 234.849C127.78 236.593 127.644 238.411 126.988 240.084C126.625 240.866 126.024 241.527 125.262 241.981C124.54 242.394 123.715 242.614 122.873 242.62C122.088 242.628 121.315 242.433 120.639 242.054C120.023 241.694 119.507 241.2 119.133 240.613C118.807 240.114 118.598 239.555 118.521 238.972C118.443 238.39 118.498 237.799 118.682 237.238C118.798 236.799 119.058 236.407 119.423 236.117C119.788 235.827 120.241 235.654 120.715 235.624C121.013 235.631 121.303 235.714 121.555 235.863C121.808 236.012 122.015 236.222 122.154 236.472C122.243 236.653 122.253 236.859 122.183 237.047Z" fill="#FD0000"/>
<path d="M151.916 231.191C152.031 228.683 151.676 220.893 151.686 221.158C151.686 221.158 145.711 221.067 144.838 215.521C143.965 209.976 143.111 197.088 143.111 197.088L153.412 191.169L166.053 198.703L166.965 230.033L151.916 231.191Z" fill="#FFBE9D"/>
<path d="M145.202 206.382C145.215 206.522 145.272 206.655 145.365 206.764C145.458 206.873 145.583 206.953 145.724 206.995C145.865 207.037 146.016 207.038 146.158 206.998C146.3 206.958 146.426 206.879 146.52 206.771C146.615 206.664 146.674 206.532 146.69 206.392C146.706 206.252 146.678 206.111 146.61 205.987C146.542 205.862 146.436 205.76 146.307 205.692C146.177 205.624 146.03 205.595 145.882 205.607C145.784 205.615 145.688 205.641 145.601 205.684C145.513 205.728 145.435 205.787 145.372 205.859C145.309 205.931 145.261 206.015 145.232 206.104C145.203 206.194 145.192 206.288 145.202 206.382Z" fill="#263238"/>
<path d="M144.377 205.671C144.482 205.753 145 205.26 145.806 205.151C146.612 205.041 147.245 205.36 147.321 205.251C147.398 205.142 147.245 205.032 146.967 204.886C146.589 204.695 146.156 204.625 145.733 204.686C145.31 204.747 144.919 204.935 144.617 205.224C144.396 205.443 144.329 205.634 144.377 205.671Z" fill="#263238"/>
<path d="M153.882 205.653C153.891 205.746 153.919 205.837 153.965 205.92C154.011 206.003 154.073 206.077 154.149 206.137C154.225 206.197 154.312 206.242 154.406 206.27C154.5 206.298 154.599 206.308 154.697 206.3C154.796 206.292 154.891 206.265 154.979 206.222C155.066 206.178 155.144 206.119 155.207 206.047C155.27 205.975 155.318 205.891 155.347 205.802C155.377 205.712 155.387 205.618 155.378 205.525C155.359 205.336 155.263 205.162 155.111 205.039C154.959 204.917 154.762 204.855 154.563 204.868C154.364 204.887 154.18 204.98 154.052 205.127C153.925 205.274 153.864 205.463 153.882 205.653Z" fill="#263238"/>
<path d="M153.335 204.932C153.44 205.014 153.958 204.522 154.764 204.412C155.57 204.303 156.203 204.622 156.279 204.503C156.356 204.385 156.203 204.294 155.925 204.148C155.548 203.951 155.112 203.88 154.687 203.947C154.264 204.003 153.872 204.193 153.575 204.485C153.345 204.686 153.287 204.877 153.335 204.932Z" fill="#263238"/>
<path d="M151.033 211.645C150.59 211.572 150.138 211.556 149.69 211.599C149.489 211.599 149.287 211.599 149.23 211.453C149.185 211.245 149.208 211.028 149.297 210.833C149.419 210.31 149.553 209.763 149.7 209.191C150.093 207.794 150.372 206.37 150.534 204.932C150.028 206.296 149.633 207.696 149.355 209.118C149.22 209.696 149.096 210.243 148.981 210.76C148.884 211.026 148.884 211.315 148.981 211.581C149.021 211.647 149.076 211.704 149.142 211.746C149.209 211.789 149.285 211.817 149.364 211.827C149.482 211.846 149.602 211.846 149.719 211.827C150.164 211.824 150.606 211.762 151.033 211.645Z" fill="#263238"/>
<path d="M153.767 212.146C154.534 211.562 151.628 213.615 149.979 213.761C150.311 214.127 150.764 214.376 151.264 214.465C151.764 214.555 152.282 214.48 152.731 214.253C154.39 213.414 153.767 212.146 153.767 212.146Z" fill="white"/>
<path d="M151.705 221.186C154.479 220.84 157.091 219.749 159.234 218.039C159.234 218.039 157.863 222.262 151.916 222.545L151.705 221.186Z" fill="#EB996E"/>
<path d="M174.234 199.669C169.946 188.305 158.993 187.046 156.874 187.228C154.591 187.42 150.486 186.572 145.211 192.81C139.936 199.049 143.436 204.284 143.436 204.284L152.98 201.183C152.088 199.04 152.836 196.212 153.287 194.899L153.335 194.854C155.819 203.062 165.746 205.68 165.746 205.68L175.068 202.305C174.846 201.411 174.567 200.531 174.234 199.669Z" fill="#FF9776"/>
<path d="M175.04 202.196C175.04 202.196 177.86 215.485 166.657 218.768L165.535 202.661L175.04 202.196Z" fill="#FF9776"/>
<path d="M140.953 204.695C140.743 203.956 140.665 203.188 140.723 202.424C140.825 198.692 142.357 195.125 145.029 192.391C145.545 191.806 146.165 191.312 146.861 190.932C146.919 190.995 146.228 191.561 145.288 192.619C144.096 193.994 143.126 195.532 142.411 197.179C141.701 198.848 141.264 200.611 141.116 202.406C140.972 203.819 141.039 204.686 140.953 204.695Z" fill="#FF9776"/>
<path d="M153.153 194.726C153.229 194.726 153.546 195.747 154.217 197.362C155.053 199.469 156.277 201.418 157.833 203.117C159.443 204.722 161.544 205.804 163.837 206.209C164.523 206.375 165.242 206.375 165.928 206.209C166.398 206.072 166.503 206.309 166.523 206.337C166.542 206.364 166.475 206.172 165.995 206.382C165.288 206.636 164.522 206.699 163.78 206.565C161.366 206.245 159.139 205.151 157.469 203.464C155.862 201.73 154.641 199.703 153.882 197.508C153.644 196.852 153.442 196.186 153.277 195.51C153.191 195.257 153.149 194.992 153.153 194.726Z" fill="#FF9776"/>
<g opacity="0.7">
<path d="M174.234 199.67C169.946 188.305 158.993 187.046 156.874 187.229C154.591 187.42 150.486 186.572 145.211 192.811C139.936 199.049 143.436 204.285 143.436 204.285L152.98 201.184C152.088 199.04 152.836 196.213 153.287 194.899L153.335 194.854C155.819 203.063 165.746 205.68 165.746 205.68L175.068 202.305C174.846 201.412 174.567 200.532 174.234 199.67Z" fill="#EE0000"/>
<path d="M175.04 202.196C175.04 202.196 177.86 215.485 166.657 218.768L165.535 202.661L175.04 202.196Z" fill="#EE0000"/>
<path opacity="0.7" d="M140.953 204.695C140.743 203.956 140.665 203.188 140.723 202.424C140.825 198.693 142.357 195.125 145.029 192.391C145.545 191.806 146.165 191.312 146.861 190.932C146.919 190.996 146.228 191.561 145.288 192.619C144.096 193.995 143.126 195.532 142.411 197.18C141.701 198.849 141.264 200.611 141.116 202.406C140.972 203.82 141.039 204.686 140.953 204.695Z" fill="#FF4C4C"/>
<path opacity="0.7" d="M153.153 194.726C153.229 194.726 153.546 195.748 154.217 197.362C155.053 199.47 156.277 201.419 157.833 203.117C159.443 204.722 161.544 205.804 163.837 206.209C164.523 206.375 165.242 206.375 165.928 206.209C166.398 206.072 166.503 206.309 166.523 206.337C166.542 206.364 166.475 206.173 165.995 206.382C165.288 206.636 164.522 206.699 163.78 206.565C161.366 206.245 159.139 205.151 157.469 203.464C155.862 201.73 154.641 199.704 153.882 197.508C153.644 196.853 153.442 196.186 153.277 195.51C153.191 195.257 153.149 194.992 153.153 194.726Z" fill="#FF4C4C"/>
</g>
<path d="M165.583 206.555C165.688 206.492 169.112 205.461 169.525 209.465C169.937 213.469 165.554 212.53 165.535 212.42C165.516 212.311 165.583 206.555 165.583 206.555Z" fill="#FFBE9D"/>
<path d="M166.676 210.897C166.676 210.897 166.753 210.897 166.887 210.979C167.064 211.04 167.258 211.04 167.434 210.979C167.688 210.789 167.885 210.539 168.004 210.254C168.124 209.969 168.162 209.659 168.115 209.355C168.089 209.01 167.984 208.674 167.808 208.37C167.753 208.251 167.67 208.145 167.565 208.061C167.461 207.978 167.337 207.918 167.204 207.887C167.117 207.874 167.028 207.89 166.952 207.934C166.877 207.977 166.82 208.044 166.792 208.124C166.744 208.233 166.792 208.315 166.792 208.325C166.792 208.334 166.696 208.261 166.715 208.097C166.727 207.996 166.774 207.903 166.849 207.832C166.901 207.777 166.964 207.734 167.036 207.705C167.107 207.677 167.184 207.664 167.261 207.668C167.437 207.684 167.605 207.743 167.749 207.839C167.894 207.935 168.01 208.064 168.086 208.215C168.301 208.542 168.426 208.915 168.451 209.3C168.507 209.653 168.454 210.014 168.297 210.338C168.14 210.663 167.887 210.936 167.568 211.125C167.463 211.174 167.346 211.2 167.228 211.2C167.11 211.2 166.993 211.174 166.887 211.125C166.696 210.988 166.667 210.906 166.676 210.897Z" fill="#EB996E"/>
<path d="M168.988 211.882C168.988 211.828 169.467 211.983 169.659 212.621C169.761 212.997 169.706 213.396 169.506 213.734C169.366 213.937 169.176 214.104 168.951 214.221C168.727 214.337 168.476 214.398 168.22 214.4C167.965 214.409 167.711 214.356 167.482 214.246C167.254 214.136 167.059 213.972 166.916 213.77C166.808 213.606 166.735 213.423 166.702 213.232C166.669 213.041 166.676 212.846 166.724 212.658C166.897 212.019 167.348 211.846 167.367 211.9C167.386 211.955 167.117 212.201 167.069 212.712C167.041 212.999 167.119 213.286 167.29 213.524C167.404 213.659 167.551 213.767 167.718 213.837C167.885 213.906 168.067 213.937 168.249 213.925C168.425 213.928 168.598 213.89 168.755 213.816C168.912 213.741 169.048 213.632 169.151 213.497C169.311 213.255 169.382 212.969 169.352 212.685C169.247 212.174 168.94 211.937 168.988 211.882Z" fill="#FF9776"/>
<path d="M6.62866 305.206L15.6156 303.382L19.2602 319.38L6.12992 322.116L5.84218 321.131C4.57615 316.772 -0.257788 298.876 0.0107643 295.73C0.30809 292.282 6.62866 305.206 6.62866 305.206Z" fill="#FF9776"/>
<path d="M6.49439 322.345C6.45386 322.26 6.42174 322.171 6.39848 322.08L6.16828 321.296C5.95728 320.52 5.68873 319.554 5.38181 318.414C4.72002 315.978 3.8664 312.604 3.01279 308.855C2.15917 305.106 1.44943 301.695 0.979462 299.223C0.758864 298.065 0.586216 297.08 0.432757 296.296C0.384801 295.995 0.346431 295.73 0.308067 295.493C0.269702 295.256 0.308067 295.21 0.308067 295.21C0.347119 295.298 0.372954 295.39 0.384798 295.484C0.432754 295.721 0.490299 295.985 0.547846 296.277L1.1521 299.196C1.66043 301.668 2.37978 305.07 3.24298 308.818C4.10619 312.567 4.93102 315.942 5.55445 318.386C5.84218 319.535 6.09156 320.502 6.28339 321.278C6.36012 321.569 6.41766 321.834 6.47521 322.071C6.49462 322.161 6.50108 322.253 6.49439 322.345Z" fill="#263238"/>
<path d="M1.11426 300.892C1.59221 300.664 2.03977 300.382 2.44743 300.053C2.82062 299.679 3.14286 299.263 3.40656 298.812C3.28994 299.336 3.01096 299.813 2.60573 300.184C2.20049 300.555 1.68762 300.801 1.13343 300.892H1.11426Z" fill="#263238"/>
<path d="M4.70117 305.097C4.70117 305.051 4.9026 304.768 5.23829 304.458C5.57398 304.148 5.8713 303.92 5.90966 303.956C5.94803 303.993 5.70825 304.276 5.38215 304.595C5.05605 304.914 4.74913 305.133 4.70117 305.097Z" fill="#263238"/>
<path d="M5.71777 306.236C5.71777 306.236 5.79449 305.926 5.9959 305.598C6.19732 305.27 6.38914 305.023 6.4371 305.051C6.48505 305.078 6.36035 305.361 6.16854 305.689C5.97672 306.017 5.76573 306.264 5.71777 306.236Z" fill="#263238"/>
<path d="M7.49177 306.73C7.33881 306.48 7.23787 306.204 7.19447 305.918C7.09633 305.643 7.06357 305.35 7.09855 305.061C7.25152 305.311 7.35248 305.586 7.39588 305.873C7.49371 306.148 7.52644 306.441 7.49177 306.73Z" fill="#263238"/>
<path d="M8.68103 306.784C8.45274 306.528 8.28285 306.229 8.18213 305.907C8.08142 305.585 8.05207 305.247 8.09593 304.914C8.21717 305.21 8.31026 305.515 8.37409 305.826C8.50726 306.136 8.61002 306.456 8.68103 306.784Z" fill="#263238"/>
<path d="M6.05329 304.249C5.91145 303.922 5.83344 303.572 5.8231 303.218C5.78502 302.836 5.78502 302.451 5.8231 302.069C5.83475 301.84 5.87665 301.613 5.94779 301.394C5.9934 301.255 6.09282 301.138 6.22594 301.066C6.30196 301.035 6.38577 301.025 6.46739 301.038C6.54901 301.051 6.62501 301.086 6.68632 301.139C6.97735 301.488 7.13169 301.923 7.12294 302.369C7.11419 302.815 6.94291 303.244 6.63836 303.583C6.46031 303.784 6.2418 303.948 5.99575 304.067C5.90919 304.119 5.81035 304.15 5.70801 304.158C6.01816 303.986 6.29412 303.764 6.52327 303.501C6.75733 303.211 6.89733 302.862 6.9261 302.498C6.97722 302.064 6.84626 301.628 6.56163 301.285C6.38898 301.148 6.19716 301.285 6.13002 301.458C6.06454 301.663 6.02272 301.874 6.00533 302.087C5.96905 302.461 5.96905 302.836 6.00533 303.209C5.99574 303.848 6.13002 304.24 6.05329 304.249Z" fill="#263238"/>
<path d="M5.93848 303.993C6.13461 303.821 6.39077 303.724 6.65781 303.72C6.94813 303.697 7.24005 303.738 7.51143 303.838C7.78957 303.975 8.17322 304.139 8.24995 304.577C8.25123 304.631 8.24131 304.685 8.22078 304.735C8.20026 304.785 8.16953 304.831 8.13034 304.87C8.09115 304.909 8.04428 304.94 7.99239 304.962C7.9405 304.984 7.88462 304.995 7.82794 304.997C7.65182 305.007 7.47534 304.982 7.31001 304.924C7.03941 304.837 6.78157 304.717 6.54271 304.568C6.31273 304.449 6.11555 304.28 5.96725 304.075C5.96725 304.075 6.20702 304.24 6.61944 304.458C6.85783 304.58 7.10847 304.677 7.36755 304.75C7.62651 304.851 8.05812 304.86 8.05812 304.586C8.05812 304.313 7.69366 304.112 7.4347 304.002C7.19482 303.896 6.93174 303.846 6.6674 303.857C6.41934 303.873 6.17443 303.919 5.93848 303.993Z" fill="#263238"/>
<path d="M11.0208 321.068C11.0208 321.068 10.9632 320.603 10.7138 319.891C10.3776 318.978 9.7877 318.168 9.00663 317.547C8.21326 316.938 7.25635 316.553 6.24437 316.434C5.4579 316.334 4.96875 316.434 4.96875 316.38C4.96875 316.325 5.08385 316.334 5.30445 316.307C5.62315 316.273 5.94486 316.273 6.26356 316.307C7.31718 316.393 8.3195 316.777 9.1409 317.41C9.95466 318.05 10.5519 318.903 10.8577 319.864C10.9495 320.161 11.0073 320.467 11.0304 320.776C11.0419 320.873 11.0386 320.972 11.0208 321.068Z" fill="#263238"/>
<path d="M17.6394 317.966C16.515 318.307 15.3719 318.59 14.2153 318.814C13.0764 319.1 11.9201 319.32 10.7529 319.471C11.8774 319.13 13.0204 318.847 14.177 318.623C15.3172 318.342 16.4732 318.123 17.6394 317.966Z" fill="#263238"/>
<path d="M6.04323 314.017C5.39238 312.536 5.01597 310.959 4.93066 309.356C4.98821 309.356 5.16085 310.405 5.46776 311.691C5.77467 312.977 6.12955 314.008 6.04323 314.017Z" fill="#263238"/>
<path d="M6.77303 317.118C6.77303 317.118 6.52366 317.073 6.24552 317.018C5.96739 316.963 5.72762 316.954 5.71803 316.899C5.70844 316.845 5.96739 316.772 6.2839 316.836C6.6004 316.899 6.8018 317.118 6.77303 317.118Z" fill="#263238"/>
<path d="M8.58509 318.03C8.58509 318.03 8.3549 318.03 8.14388 317.875C7.93286 317.72 7.77938 317.601 7.80816 317.556C7.83693 317.51 8.03837 317.556 8.24939 317.711C8.46041 317.866 8.61387 317.975 8.58509 318.03Z" fill="#263238"/>
<path d="M9.67804 319.562C9.62049 319.562 9.57253 319.344 9.43825 319.134C9.30396 318.924 9.12172 318.769 9.15049 318.723C9.17927 318.678 9.43825 318.723 9.60131 319.033C9.76437 319.344 9.726 319.562 9.67804 319.562Z" fill="#263238"/>
<path d="M10.2826 320.694C10.2826 320.694 10.1387 320.648 10.0524 320.53C9.96607 320.411 9.93729 320.283 9.97566 320.256C10.014 320.229 10.1291 320.302 10.2154 320.42C10.3017 320.539 10.3305 320.666 10.2826 320.694Z" fill="#263238"/>
<path d="M13.4963 322.928L76.3951 317.401L170.667 319.408L150.832 298.886L83.1568 295.794L8.46094 302.498L13.4963 322.928Z" fill="#263238"/>
<path d="M24.2282 311.236C22.6839 311.719 21.0523 311.899 19.4326 311.765C20.9738 311.268 22.6083 311.087 24.2282 311.236Z" fill="#455A64"/>
<path d="M33.7722 310.296C32.2255 310.769 30.5903 310.922 28.9766 310.743C30.5261 310.284 32.1583 310.132 33.7722 310.296Z" fill="#455A64"/>
<path d="M43.3239 309.53C41.7697 309.969 40.1361 310.093 38.5283 309.895C40.0825 309.456 41.7161 309.332 43.3239 309.53Z" fill="#455A64"/>
<path d="M52.8964 308.909C52.1399 309.192 51.3299 309.322 50.5177 309.292C49.717 309.416 48.8982 309.385 48.1104 309.201C48.8669 308.918 49.6768 308.788 50.489 308.818C51.2896 308.693 52.1087 308.724 52.8964 308.909Z" fill="#455A64"/>
<path d="M62.4783 308.454C61.7174 308.718 60.9084 308.832 60.0997 308.791C59.2965 308.905 58.4773 308.862 57.6924 308.664C59.2571 308.271 60.8919 308.199 62.4879 308.454H62.4783Z" fill="#FF9776"/>
<path d="M72.069 308.143C71.2985 308.393 70.4836 308.495 69.6712 308.444C68.868 308.546 68.0512 308.487 67.2734 308.271C68.0402 308.019 68.8524 307.917 69.6616 307.97C70.4681 307.868 71.2879 307.927 72.069 308.143Z" fill="#FF9776"/>
<path d="M81.6511 307.998C80.8829 308.243 80.0696 308.333 79.2629 308.262C78.4543 308.347 77.6362 308.279 76.8555 308.062C77.626 307.813 78.4427 307.72 79.2533 307.788C80.0593 307.707 80.8741 307.779 81.6511 307.998Z" fill="#455A64"/>
<path d="M91.2419 307.997C90.4673 308.228 89.6513 308.306 88.8441 308.225C88.0355 308.305 87.2183 308.221 86.4463 307.979C87.222 307.754 88.0368 307.677 88.8441 307.751C89.6526 307.68 90.4679 307.764 91.2419 307.997Z" fill="#455A64"/>
<path d="M100.833 308.116C99.2448 308.402 97.6117 308.371 96.0371 308.024C96.8169 307.802 97.6367 307.737 98.4445 307.833C99.2527 307.763 100.067 307.86 100.833 308.116Z" fill="#455A64"/>
<path d="M110.424 308.409C108.831 308.671 107.198 308.615 105.629 308.244C106.411 308.035 107.231 307.982 108.036 308.089C108.847 308.043 109.659 308.152 110.424 308.409Z" fill="#455A64"/>
<path d="M120.005 308.855C119.22 309.051 118.401 309.092 117.598 308.973C116.784 309.007 115.972 308.883 115.21 308.609C115.996 308.417 116.815 308.38 117.617 308.499C118.43 308.465 119.242 308.586 120.005 308.855Z" fill="#455A64"/>
<path d="M129.567 309.466C128.779 309.651 127.959 309.675 127.16 309.539C126.351 309.559 125.546 309.426 124.791 309.147C125.579 308.963 126.399 308.935 127.198 309.065C128.008 309.045 128.814 309.182 129.567 309.466Z" fill="#455A64"/>
<path d="M138.056 310.15C138.056 310.278 137.202 310.314 136.186 310.223C135.169 310.132 134.335 309.968 134.354 309.831C134.373 309.694 135.198 309.667 136.224 309.758C137.25 309.849 138.066 310.013 138.056 310.15Z" fill="#FF9776"/>
<path d="M21.9075 322.081C21.5503 321.097 21.2651 320.092 21.0539 319.071C20.5647 317.201 19.8742 314.62 19.0206 311.774C18.167 308.928 17.3325 306.42 16.7091 304.587C16.3138 303.613 15.9932 302.613 15.75 301.595C15.9157 301.827 16.0479 302.078 16.1432 302.343C16.3638 302.845 16.6708 303.565 17.0256 304.477C17.7354 306.302 18.6369 308.81 19.4905 311.646C20.3441 314.483 20.9772 317.119 21.4088 318.943C21.6102 319.855 21.7636 320.658 21.8404 321.187C21.9065 321.48 21.9291 321.781 21.9075 322.081Z" fill="#455A64"/>
<path d="M56.4739 320.301L58.2866 311.728L75.1862 314.856L72.6733 327.416L71.6087 327.288C66.8995 326.668 47.698 323.84 44.7535 322.363C41.4925 320.767 56.4739 320.301 56.4739 320.301Z" fill="#FF9776"/>
<path d="M72.9901 327.088H72.6927L71.8487 326.978L68.7507 326.531C66.142 326.148 62.5357 325.565 58.5745 324.835C54.6134 324.105 51.0455 323.376 48.4655 322.81L45.4251 322.126L44.6002 321.925L44.3125 321.843C44.4081 321.833 44.5046 321.833 44.6002 321.843L45.4347 322.007L48.4942 322.637C51.0839 323.166 54.6518 323.877 58.6129 324.607C62.5741 325.337 66.1707 325.929 68.7699 326.358L71.8583 326.86L72.6927 326.997L72.9901 327.088Z" fill="#263238"/>
<path d="M50.1341 323.339C50.1357 322.305 49.7401 321.306 49.0215 320.53C49.509 320.81 49.8709 321.252 50.0382 321.77C50.2688 322.265 50.3029 322.822 50.1341 323.339Z" fill="#263238"/>
<path d="M55.6107 321.853C55.2851 321.403 55.0718 320.888 54.9873 320.348C55.0449 320.348 55.2175 320.649 55.3901 321.068C55.5247 321.311 55.6001 321.579 55.6107 321.853Z" fill="#263238"/>
<path d="M57.1163 321.414C57.1163 321.414 56.8477 321.223 56.5983 320.922C56.349 320.621 56.2051 320.347 56.2435 320.32C56.2818 320.293 56.5216 320.502 56.7614 320.813C57.0011 321.123 57.1642 321.378 57.1163 321.414Z" fill="#263238"/>
<path d="M58.2958 320.056C57.9916 320.101 57.6805 320.083 57.3847 320.001C57.0833 319.971 56.7905 319.887 56.5215 319.755C56.8225 319.709 57.1306 319.727 57.423 319.809C57.7287 319.833 58.0259 319.917 58.2958 320.056Z" fill="#263238"/>
<path d="M58.804 319.043C58.4679 319.136 58.1155 319.164 57.7678 319.125C57.4201 319.085 57.0842 318.98 56.7803 318.815C57.1189 318.833 57.4556 318.875 57.7874 318.943C58.1286 318.949 58.4687 318.982 58.804 319.043Z" fill="#263238"/>
<path d="M55.3223 320.337C54.9508 320.338 54.5828 320.27 54.2386 320.137C53.8576 320.016 53.4885 319.863 53.1356 319.681C52.9182 319.573 52.7126 319.444 52.5217 319.298C52.4109 319.199 52.3397 319.067 52.3203 318.924C52.3222 318.846 52.3463 318.77 52.3903 318.704C52.4342 318.638 52.4963 318.585 52.5697 318.55C53.0216 318.434 53.5018 318.471 53.9285 318.653C54.3552 318.836 54.702 319.154 54.9099 319.553C55.0404 319.787 55.1157 320.046 55.1305 320.31C55.1545 320.403 55.1545 320.5 55.1305 320.593C55.086 320.252 54.9788 319.922 54.814 319.617C54.6302 319.297 54.3495 319.036 54.0084 318.869C53.6088 318.655 53.1368 318.6 52.6944 318.714C52.493 318.805 52.5217 319.015 52.6944 319.161C52.8657 319.301 53.0521 319.423 53.2507 319.526C53.5926 319.711 53.9484 319.873 54.3153 320.009C54.9099 320.237 55.3319 320.31 55.3223 320.337Z" fill="#263238"/>
<path d="M55.0444 320.338C54.9474 320.101 54.9474 319.837 55.0444 319.599C55.1377 319.339 55.2918 319.102 55.4952 318.906C55.6166 318.77 55.7732 318.665 55.9496 318.603C56.126 318.54 56.3164 318.522 56.5022 318.551C56.6055 318.593 56.6873 318.672 56.7303 318.771C56.7733 318.869 56.7741 318.98 56.7324 319.08C56.677 319.241 56.5816 319.388 56.4543 319.508C56.2684 319.71 56.0556 319.888 55.8213 320.037C55.6179 320.197 55.3725 320.301 55.1115 320.338C55.1115 320.338 55.3705 320.201 55.7349 319.928C55.9511 319.77 56.1474 319.59 56.32 319.39C56.5118 319.198 56.6941 318.824 56.4255 318.724C56.275 318.712 56.1236 318.733 55.9836 318.787C55.8436 318.841 55.719 318.926 55.6198 319.034C55.4304 319.207 55.2802 319.415 55.1786 319.645C55.1026 319.87 55.0575 320.103 55.0444 320.338Z" fill="#263238"/>
<path d="M73.5366 322.591C73.5366 322.591 73.0667 322.454 72.2802 322.399C71.2631 322.333 70.246 322.528 69.3357 322.965C68.4374 323.425 67.688 324.109 67.1681 324.944C66.7749 325.582 66.6502 326.047 66.6215 326.029C66.5927 326.011 66.6215 325.911 66.6886 325.71C66.7759 325.422 66.8949 325.144 67.0435 324.88C67.546 323.994 68.3137 323.271 69.2494 322.8C70.1872 322.337 71.2499 322.153 72.2994 322.271C72.6257 322.301 72.9474 322.365 73.2585 322.463C73.3578 322.491 73.4518 322.534 73.5366 322.591Z" fill="#263238"/>
<path d="M73.153 315.622C73.0381 316.741 72.8587 317.852 72.6158 318.951C72.4359 320.06 72.1957 321.159 71.8965 322.244C72.0043 321.126 72.1804 320.014 72.424 318.915C72.5973 317.805 72.8408 316.705 73.153 315.622Z" fill="#263238"/>
<path d="M64.7703 324.196C63.9258 324.225 63.0809 324.149 62.2574 323.968C61.4201 323.854 60.6015 323.64 59.8213 323.329C59.8213 323.275 60.9243 323.548 62.2862 323.785C63.6482 324.023 64.7703 324.141 64.7703 324.196Z" fill="#263238"/>
<path d="M68.0787 324.808C68.0787 324.808 67.9445 325.008 67.7814 325.227C67.6184 325.446 67.5129 325.647 67.4553 325.637C67.3978 325.628 67.4553 325.373 67.6184 325.118C67.7814 324.862 68.05 324.762 68.0787 324.808Z" fill="#263238"/>
<path d="M69.623 323.557C69.623 323.603 69.5175 323.749 69.3065 323.876C69.0955 324.004 68.9037 324.095 68.875 324.05C68.8462 324.004 68.9805 323.858 69.1915 323.721C69.4025 323.585 69.5943 323.502 69.623 323.557Z" fill="#263238"/>
<path d="M71.5509 323.211C71.5509 323.257 71.3015 323.211 71.0425 323.257C70.7836 323.302 70.563 323.384 70.5342 323.339C70.5054 323.293 70.6877 323.102 71.0138 323.065C71.3399 323.029 71.5797 323.166 71.5509 323.211Z" fill="#263238"/>
<path d="M72.8842 323.129C72.8842 323.175 72.7786 323.239 72.6348 323.266C72.4909 323.293 72.3471 323.266 72.3375 323.22C72.3279 323.175 72.443 323.102 72.5964 323.083C72.7499 323.065 72.8746 323.074 72.8842 323.129Z" fill="#263238"/>
<path d="M182.549 310.415C181.255 311.984 178.454 319.435 171.74 322.692C162.725 327.051 149.537 324.406 141.73 317.101C120.13 296.871 90.7334 265.322 90.7334 265.322L77.5168 320.138L52.7812 316.407C52.7812 316.407 66.698 253.474 74.6395 244.024C77.6511 240.458 85.3912 232.815 99.8258 242.702C113.004 251.741 133.395 268.24 164.95 296.296L182.549 310.415Z" fill="#455A64"/>
<path d="M175.893 305.599C175.687 305.771 175.45 305.907 175.193 306C174.515 306.3 173.795 306.503 173.054 306.602C171.824 306.794 170.564 306.727 169.363 306.407C168.163 306.086 167.05 305.52 166.104 304.747C165.159 303.974 164.402 303.014 163.888 301.934C163.373 300.854 163.114 299.679 163.127 298.494C163.12 297.781 163.22 297.072 163.425 296.387C163.48 296.132 163.587 295.89 163.741 295.675C163.556 296.598 163.469 297.536 163.482 298.475C163.51 299.602 163.787 300.71 164.294 301.729C164.801 302.747 165.528 303.653 166.427 304.387C167.325 305.122 168.376 305.668 169.512 305.992C170.647 306.315 171.841 306.408 173.016 306.265C173.995 306.128 174.958 305.905 175.893 305.599Z" fill="#263238"/>
<path d="M77.4491 315.622C77.1282 315.639 76.8064 315.621 76.49 315.567L73.8428 315.248C71.6177 314.975 68.5293 314.61 65.1244 314.236C61.7196 313.862 58.6216 313.533 56.3965 313.242C55.2743 313.096 54.3728 312.968 53.7589 312.868C53.4318 312.838 53.1098 312.771 52.7998 312.667C53.1178 312.623 53.4409 312.623 53.7589 312.667L56.4157 312.886C58.6504 313.096 61.7484 313.378 65.1628 313.752C68.5773 314.126 71.656 314.537 73.8812 314.902C74.9938 315.084 75.8857 315.239 76.4996 315.367C76.828 315.405 77.1484 315.491 77.4491 315.622Z" fill="#263238"/>
<path d="M67.5802 309.219C67.6372 309.989 67.5295 310.762 67.2637 311.491C67.1481 312.255 66.8742 312.989 66.458 313.652C66.5021 312.116 66.8844 310.606 67.5802 309.219Z" fill="#263238"/>
<path d="M69.9588 300.382C69.8798 301.914 69.4684 303.413 68.7503 304.787C68.7079 304.017 68.8319 303.247 69.1148 302.525C69.2341 301.762 69.5217 301.031 69.9588 300.382Z" fill="#263238"/>
<path d="M72.5097 291.58C72.5386 292.35 72.3981 293.117 72.0972 293.833C71.9544 294.593 71.6545 295.318 71.2148 295.967C71.3143 294.434 71.7557 292.938 72.5097 291.58Z" fill="#263238"/>
<path d="M75.2535 282.852C75.2573 283.624 75.1008 284.39 74.7931 285.104C74.6242 285.86 74.2981 286.577 73.834 287.211C73.8192 286.442 73.9727 285.678 74.2848 284.968C74.451 284.206 74.7808 283.486 75.2535 282.852Z" fill="#263238"/>
<path d="M78.1784 274.168C78.1675 274.941 77.9947 275.704 77.6701 276.412C77.5046 277.163 77.1781 277.874 76.7109 278.501C76.7167 277.73 76.8898 276.97 77.2193 276.266C77.38 275.51 77.7069 274.795 78.1784 274.168Z" fill="#263238"/>
<path d="M81.2665 265.541C81.2415 266.31 81.0557 267.066 80.7198 267.766C80.5318 268.517 80.186 269.225 79.7031 269.846C79.7221 269.073 79.9082 268.312 80.2498 267.611C80.4344 266.861 80.7806 266.156 81.2665 265.541Z" fill="#263238"/>
<path d="M84.4899 256.92C84.4637 257.692 84.2676 258.45 83.9144 259.146C83.7139 259.897 83.3549 260.601 82.8594 261.216C82.8967 260.445 83.0956 259.688 83.4444 258.991C83.6458 258.242 84.0011 257.538 84.4899 256.92Z" fill="#263238"/>
<path d="M89.2376 255.434C89.1417 255.525 88.3361 254.841 87.4441 253.902C86.9889 253.432 86.566 252.936 86.178 252.415L86.4082 252.369C86.2835 252.579 86.1972 252.689 86.1492 252.67C86.1013 252.652 86.1492 252.515 86.1492 252.278V252.096L86.3315 252.242C86.8435 252.656 87.3243 253.104 87.7702 253.582C88.7005 254.522 89.3431 255.352 89.2376 255.434Z" fill="#263238"/>
<path d="M95.7201 262.166C95.6146 262.257 94.809 261.573 93.9074 260.642C93.3072 260.13 92.8184 259.51 92.4688 258.818C92.5743 258.727 93.3799 259.411 94.2815 260.332C95.183 261.254 95.816 262.074 95.7201 262.166Z" fill="#263238"/>
<path d="M102.242 268.851C102.137 268.933 101.283 268.258 100.42 267.337C99.5567 266.416 98.8661 265.595 98.9716 265.513C99.0771 265.431 99.8828 266.106 100.784 267.027C101.686 267.948 102.338 268.778 102.242 268.851Z" fill="#263238"/>
<path d="M108.803 275.5C108.707 275.591 107.844 274.917 106.981 274.004C106.118 273.092 105.418 272.262 105.523 272.18C105.629 272.098 106.434 272.755 107.346 273.676C108.257 274.597 108.899 275.409 108.803 275.5Z" fill="#263238"/>
<path d="M115.393 282.131C115.288 282.222 114.434 281.547 113.561 280.635C112.949 280.125 112.451 279.505 112.094 278.811C112.199 278.719 113.053 279.385 113.926 280.297C114.798 281.209 115.47 282.039 115.393 282.131Z" fill="#263238"/>
<path d="M121.991 288.744C121.885 288.835 121.031 288.169 120.159 287.257C119.286 286.345 118.586 285.533 118.691 285.433C118.797 285.333 119.65 286.008 120.523 286.92C121.396 287.832 122.087 288.653 121.991 288.744Z" fill="#263238"/>
<path d="M128.59 295.365C128.485 295.456 127.631 294.79 126.758 293.869C125.885 292.948 125.185 292.145 125.291 292.045C125.396 291.944 126.25 292.619 127.123 293.541C127.996 294.462 128.686 295.274 128.59 295.365Z" fill="#263238"/>
<path d="M135.178 301.996C135.073 302.078 134.219 301.412 133.346 300.5C132.474 299.588 131.783 298.767 131.889 298.676C131.994 298.585 132.8 299.26 133.711 300.172C134.622 301.084 135.274 301.905 135.178 301.996Z" fill="#263238"/>
<path d="M142.066 308.316C141.989 308.426 141.02 307.924 140.023 307.076C139.025 306.228 138.364 305.398 138.469 305.316C138.575 305.234 139.371 305.899 140.387 306.72C141.404 307.541 142.142 308.207 142.066 308.316Z" fill="#263238"/>
<path d="M150.956 311.518C149.324 311.711 147.673 311.35 146.295 310.496C147.095 310.548 147.885 310.698 148.645 310.943C149.439 311.034 150.217 311.227 150.956 311.518Z" fill="#263238"/>
<path d="M160.068 309.402C159.53 309.998 158.835 310.445 158.054 310.698C157.335 311.09 156.511 311.27 155.685 311.217C156.37 310.839 157.097 310.533 157.852 310.305C158.543 309.908 159.289 309.604 160.068 309.402Z" fill="#263238"/>
<path d="M165.669 304.806C165.775 304.897 165.477 305.398 164.969 305.891C164.461 306.383 163.943 306.703 163.847 306.602C163.751 306.502 164.106 306.055 164.604 305.563C165.103 305.07 165.564 304.723 165.669 304.806Z" fill="#263238"/>
<path d="M88.5557 260.012C89.0667 260.967 89.4809 261.966 89.7929 262.995C90.2657 263.982 90.5297 265.048 90.5698 266.133C90.0581 265.177 89.6407 264.179 89.323 263.15C88.8441 262.165 88.5829 261.097 88.5557 260.012Z" fill="#263238"/>
<path d="M187.029 282.951C187.662 266.634 183.116 247.964 178.521 238.259C187.154 236.362 184.19 226.329 184.19 226.329C184.19 226.329 187.499 225.198 184.449 224.14C181.399 223.082 169.659 225.052 166.811 225.855C162.008 227.483 156.956 228.346 151.858 228.409C145.087 243.586 141.509 248.712 141.222 253.61C138.411 257.395 135.879 260.377 134.508 260.961C130.201 262.785 105.044 237.584 105.044 237.584L97.1406 246.049C97.1406 246.049 113.302 271.286 131.247 279.029C137.001 281.519 143.101 279.212 148.712 274.934C149.671 277.497 150.324 279.13 150.324 279.13L147.283 281.784L182.531 310.396C182.531 310.296 182.703 310.013 182.732 309.913C183.476 310.193 184.297 310.225 185.063 310.004C185.983 309.665 186.731 309.002 187.151 308.153C187.57 307.304 187.63 306.333 187.317 305.443C186.722 304.021 185.13 302.607 185.907 301.257C186.3 300.573 187.173 300.299 187.758 299.752C188.122 299.362 188.388 298.898 188.534 298.395C188.681 297.892 188.704 297.364 188.602 296.852C188.387 295.835 188.066 294.842 187.643 293.887C187.1 292.438 186.746 290.931 186.588 289.4C186.811 287.229 186.962 285.101 187.038 283.015" fill="#FF9776"/>
<path d="M151.78 228.126C152.557 228.008 153.343 227.953 154.13 227.962C155.578 227.889 157.573 227.752 159.76 227.451C161.624 227.215 163.47 226.862 165.285 226.393C166.018 226.165 166.678 225.763 167.203 225.226C167.203 225.226 167.155 225.454 166.886 225.764C166.483 226.173 165.984 226.486 165.429 226.676C163.615 227.256 161.745 227.662 159.846 227.889C157.963 228.152 156.062 228.28 154.159 228.272C153.363 228.315 152.564 228.266 151.78 228.126Z" fill="#263238"/>
<path d="M173.016 229.813C174.38 231.104 175.546 232.572 176.478 234.173C177.549 235.693 178.386 237.352 178.962 239.098C178.828 239.153 177.687 236.973 176.085 234.419C174.483 231.865 172.881 229.904 173.016 229.813Z" fill="#263238"/>
<path d="M166.417 226.184C167.291 226.28 168.159 226.423 169.016 226.613C173.171 227.333 177.427 227.355 181.59 226.676C182.448 226.496 183.316 226.362 184.189 226.275C183.383 226.626 182.532 226.874 181.657 227.014C179.568 227.441 177.436 227.652 175.298 227.643C173.158 227.633 171.025 227.398 168.939 226.941C168.067 226.795 167.219 226.541 166.417 226.184Z" fill="#263238"/>
<path d="M146.074 277.197C146.41 276.863 146.776 276.557 147.168 276.285C147.532 275.993 147.983 275.637 148.462 275.199C148.942 274.761 149.537 274.287 150.122 273.713C151.531 272.394 152.866 271.006 154.121 269.553C155.531 267.903 156.999 266.024 158.437 263.99C161.315 259.895 163.54 255.991 165.151 253.163C165.928 251.804 166.58 250.682 167.069 249.816C167.289 249.397 167.542 248.994 167.827 248.612C167.682 249.06 167.485 249.491 167.242 249.898C166.829 250.719 166.225 251.886 165.448 253.318C163.452 257.08 161.24 260.734 158.821 264.263C157.462 266.189 156.002 268.049 154.447 269.836C153.166 271.29 151.795 272.669 150.342 273.968C149.738 274.533 149.134 274.989 148.616 275.409C148.183 275.771 147.732 276.112 147.264 276.431C146.889 276.716 146.492 276.972 146.074 277.197Z" fill="#263238"/>
<path d="M161.392 232.76C160.891 232.74 160.391 232.691 159.896 232.614C158.546 232.55 157.201 232.797 155.973 233.334C154.186 234.193 152.688 235.511 151.647 237.138C151.011 238.093 150.477 239.108 150.055 240.166C149.537 241.242 148.981 242.364 148.367 243.486C146.296 247.319 143.832 250.948 141.011 254.321C139.927 255.626 138.987 256.62 138.335 257.304C138.006 257.666 137.647 258.001 137.261 258.307C137.546 257.905 137.867 257.527 138.22 257.176C138.824 256.456 139.716 255.434 140.752 254.121C143.476 250.706 145.886 247.075 147.955 243.267C148.559 242.154 149.115 241.041 149.633 239.974C149.892 239.427 150.113 238.907 150.391 238.369C150.658 237.863 150.955 237.373 151.283 236.901C152.389 235.223 153.977 233.881 155.858 233.033C157.142 232.498 158.55 232.291 159.944 232.431C160.315 232.486 160.683 232.559 161.047 232.65C161.167 232.668 161.284 232.705 161.392 232.76Z" fill="#263238"/>
<path d="M150.42 283.663C150.506 283.563 157.843 289.209 166.811 296.278C175.779 303.346 182.962 309.174 182.876 309.275C182.79 309.375 175.453 303.72 166.485 296.651C157.517 289.583 150.333 283.764 150.42 283.663Z" fill="#263238"/>
<path d="M152.874 283.051C152.951 282.942 159.415 287.53 167.261 293.285C175.106 299.04 181.465 303.792 181.379 303.901C181.293 304.011 174.847 299.423 166.992 293.659C159.137 287.894 152.788 283.152 152.874 283.051Z" fill="#263238"/>
<path d="M157.094 280.142C154.852 280.052 152.637 279.64 150.524 278.92C151.651 278.894 152.775 279.023 153.862 279.303C154.977 279.432 156.066 279.714 157.094 280.142Z" fill="#263238"/>
<path d="M135.4 267.866C135.246 267.866 135.4 266.342 134.978 264.555C134.556 262.767 133.788 261.445 133.913 261.372C134.751 262.224 135.293 263.3 135.467 264.454C135.803 265.572 135.779 266.76 135.4 267.866Z" fill="#263238"/>
<path d="M132.483 266.507C132.621 265.527 132.83 264.558 133.107 263.606C133.216 262.624 133.402 261.652 133.663 260.697C133.978 262.704 133.562 264.754 132.483 266.507Z" fill="#263238"/>
<path d="M167.933 238.333C169.287 238.489 170.627 238.743 171.942 239.09H172.134L172.086 239.281L171.213 243.13L171.021 242.847L172.882 243.194L174.915 243.577L175.164 243.632L175.107 243.86L174.148 247.417L173.994 247.18C175.241 247.444 176.267 247.672 176.977 247.846C177.355 247.908 177.723 248.018 178.07 248.174C177.687 248.187 177.303 248.15 176.929 248.064C176.2 247.955 175.174 247.782 173.917 247.554H173.706V247.362C173.975 246.277 174.263 245.082 174.579 243.787L174.771 244.07L172.738 243.696L170.877 243.34L170.628 243.294L170.685 243.066L171.644 239.235L171.788 239.454C170.476 239.17 169.188 238.795 167.933 238.333Z" fill="#263238"/>
<path d="M177.303 266.042C178.262 266.965 179.152 267.949 179.97 268.988L180.094 269.134L179.941 269.252L176.757 271.779V271.441L178.004 272.809C178.464 273.32 178.915 273.822 179.356 274.296L179.519 274.488L179.317 274.634L176.277 276.877V276.604C177.092 277.516 177.745 278.318 178.195 278.866C178.455 279.14 178.675 279.447 178.848 279.778C178.537 279.562 178.26 279.308 178.023 279.021C177.524 278.51 176.814 277.771 175.97 276.859L175.836 276.713L175.999 276.585L179.001 274.278V274.615L177.649 273.129L176.411 271.76L176.239 271.578L176.44 271.423L179.672 268.97V269.234C178.795 268.232 178.003 267.164 177.303 266.042Z" fill="#263238"/>
<path d="M141.48 258.909C142.837 259.071 144.18 259.324 145.499 259.666L145.681 259.712V259.894L144.809 263.743L144.617 263.461L146.477 263.807L148.511 264.19L148.76 264.245L148.703 264.473L147.743 268.03L147.59 267.793C148.837 268.058 149.854 268.286 150.563 268.459C150.944 268.523 151.315 268.633 151.666 268.787C151.279 268.8 150.892 268.764 150.515 268.678C149.796 268.568 148.76 268.395 147.504 268.167H147.302L147.35 267.976C147.619 266.899 147.907 265.695 148.223 264.4L148.415 264.683L146.382 264.309L144.521 263.953L144.271 263.908L144.329 263.68C144.674 262.284 145 260.989 145.288 259.849L145.432 260.068C144.087 259.774 142.766 259.386 141.48 258.909Z" fill="#263238"/>
<path d="M157.785 256.356C156.961 255.321 156.223 254.226 155.579 253.081L155.483 252.917L155.656 252.826L159.176 250.755L159.099 251.084L158.073 249.57L156.96 247.901L156.817 247.7L157.047 247.581L160.394 245.757L160.327 246.022C159.665 244.991 159.138 244.125 158.773 243.523C158.557 243.218 158.386 242.887 158.265 242.538C158.539 242.794 158.775 243.086 158.965 243.404C159.387 243.979 159.924 244.809 160.672 245.821L160.787 245.985L160.605 246.086L157.287 247.964L157.373 247.636L158.495 249.296L159.512 250.81L159.646 251.02L159.435 251.139L155.857 253.127L155.925 252.871C156.63 253.99 157.251 255.154 157.785 256.356Z" fill="#263238"/>
<path d="M160.222 239.235C160.395 237.95 160.671 236.678 161.047 235.432L161.094 235.25L161.286 235.295L165.324 236.153L165.036 236.335C165.152 235.76 165.276 235.177 165.41 234.566L165.833 232.641L165.88 232.395L166.13 232.459L169.861 233.371L169.611 233.517C169.899 232.331 170.149 231.364 170.34 230.689C170.406 230.329 170.522 229.98 170.686 229.649C170.705 230.015 170.663 230.382 170.561 230.735C170.446 231.419 170.254 232.404 170.005 233.59V233.79L169.794 233.736L166.053 232.887L166.35 232.705C166.216 233.325 166.082 233.973 165.938 234.639C165.794 235.304 165.679 235.833 165.554 236.399L165.497 236.636L165.257 236.581L161.238 235.669L161.469 235.532C161.147 236.794 160.731 238.031 160.222 239.235Z" fill="#263238"/>
<path d="M166.072 263.014C166.379 261.751 166.78 260.511 167.271 259.302L167.338 259.119L167.53 259.183L171.462 260.405L171.156 260.551C171.328 259.992 171.51 259.417 171.702 258.827C171.913 258.18 172.115 257.55 172.316 256.948L172.393 256.711L172.633 256.793L176.248 258.061L175.99 258.18C176.392 257.031 176.738 256.082 176.949 255.443C177.047 255.09 177.199 254.752 177.399 254.44C177.371 254.804 177.293 255.162 177.169 255.507C176.977 256.182 176.699 257.14 176.335 258.307L176.277 258.499L176.076 258.426L172.431 257.24L172.738 257.094C172.546 257.696 172.345 258.326 172.143 258.973C171.942 259.621 171.76 260.141 171.587 260.697L171.51 260.934L171.271 260.852L167.357 259.548L167.616 259.438C167.193 260.664 166.677 261.859 166.072 263.014Z" fill="#263238"/>
<path d="M157.219 271.797C158.583 271.714 159.952 271.729 161.314 271.842H161.506V272.034C161.506 273.21 161.429 274.542 161.381 275.974L161.142 275.728H163.06H165.131H165.342V275.974C165.256 277.296 165.17 278.519 165.093 279.622L164.892 279.422C166.167 279.422 167.213 279.513 167.951 279.567C168.333 279.562 168.713 279.605 169.083 279.695C168.709 279.774 168.325 279.805 167.942 279.786C167.213 279.786 166.158 279.786 164.882 279.786H164.681V279.586C164.729 278.482 164.786 277.251 164.844 275.937L165.093 276.184H163.012H161.094H160.835V275.947C160.911 274.515 160.988 273.21 161.046 272.006L161.237 272.207C159.89 272.157 158.547 272.02 157.219 271.797Z" fill="#263238"/>
<path d="M169.678 290.668C170.738 289.854 171.86 289.117 173.035 288.461L173.198 288.36L173.313 288.515L175.615 291.79L175.269 291.726L176.852 290.668L178.559 289.546L178.77 289.4L178.904 289.61L180.919 292.729L180.64 292.675C181.705 292.009 182.559 291.471 183.211 291.106C183.509 290.896 183.831 290.719 184.17 290.577C184.17 290.577 183.882 290.869 183.297 291.288C182.712 291.708 181.859 292.291 180.813 292.994L180.65 293.103L180.535 292.939C179.902 292.027 179.192 290.969 178.444 289.856L178.789 289.929L177.092 291.051L175.528 292.082L175.317 292.218L175.183 292.018L173.015 288.725L173.284 288.78C172.133 289.494 170.928 290.125 169.678 290.668Z" fill="#263238"/>
<path d="M112.439 260.296C111.498 259.356 110.629 258.353 109.84 257.295L109.715 257.149L109.878 257.031L113.12 254.577V254.906L111.902 253.519L110.588 251.996L110.425 251.804L110.626 251.668L113.734 249.488V249.761C112.947 248.849 112.304 248.019 111.873 247.454C111.621 247.177 111.408 246.871 111.24 246.542C111.24 246.542 111.566 246.797 112.055 247.317C112.544 247.837 113.225 248.594 114.05 249.524L114.184 249.67L114.012 249.798L110.962 252.032V251.704C111.393 252.188 111.834 252.698 112.285 253.218L113.494 254.614L113.657 254.796L113.455 254.942L110.156 257.332V257.067C110.997 258.09 111.76 259.169 112.439 260.296Z" fill="#263238"/>
<path d="M120.265 264.117C121.625 264.21 122.978 264.393 124.312 264.664H124.504V264.847C124.303 266.005 124.082 267.327 123.842 268.741L123.641 268.468L125.559 268.714L127.611 268.997H127.861L127.813 269.234C127.544 270.538 127.295 271.742 127.065 272.827L126.892 272.599C128.158 272.809 129.184 272.982 129.904 273.119C130.285 273.162 130.659 273.251 131.016 273.384C130.635 273.42 130.25 273.401 129.875 273.329C129.146 273.265 128.101 273.147 126.835 272.982H126.633V272.782C126.825 271.696 127.055 270.483 127.295 269.179L127.496 269.453L125.444 269.179L123.574 268.924H123.315L123.363 268.686L124.101 264.81L124.264 265.029C122.91 264.816 121.573 264.511 120.265 264.117Z" fill="#263238"/>
<path d="M163.031 248.712C163.833 246.982 164.932 245.392 166.283 244.005C165.481 245.734 164.382 247.325 163.031 248.712Z" fill="white"/>
<path d="M179.595 260.624C179.691 260.524 180.497 261.108 181.389 261.919C182.281 262.731 182.923 263.461 182.837 263.561C182.751 263.662 181.936 263.069 181.044 262.257C180.152 261.445 179.499 260.715 179.595 260.624Z" fill="white"/>
<path d="M163.856 266.789C164.807 266.906 165.72 267.217 166.532 267.701C167.423 268.061 168.218 268.603 168.863 269.288C167.12 268.587 165.444 267.742 163.856 266.762V266.789Z" fill="white"/>
<path d="M170.896 252.725C170.279 251.33 170.177 249.777 170.609 248.32C170.811 249.036 170.895 249.777 170.858 250.518C170.984 251.248 170.997 251.991 170.896 252.725Z" fill="white"/>
<path d="M175.663 238.295C175.548 238.368 174.944 237.611 174.32 236.617C173.697 235.623 173.284 234.793 173.409 234.693C173.534 234.592 174.128 235.377 174.752 236.371C175.198 236.942 175.509 237.599 175.663 238.295Z" fill="white"/>
<path d="M179.586 232.934C179.461 232.87 179.807 232.149 180.353 231.337C180.9 230.526 181.428 229.924 181.543 229.988C181.658 230.051 181.312 230.781 180.775 231.593C180.238 232.405 179.73 233.007 179.586 232.934Z" fill="white"/>
<path d="M160.067 230.406C160.755 230.225 161.464 230.124 162.177 230.105C162.867 229.939 163.577 229.862 164.287 229.877C163.703 230.313 162.987 230.559 162.245 230.58C161.518 230.749 160.754 230.688 160.067 230.406Z" fill="white"/>
<path d="M151.235 234.821C151.091 234.821 151.081 233.991 151.235 232.997C151.388 232.002 151.561 231.172 151.695 231.227C151.829 231.282 151.848 232.057 151.695 233.051C151.541 234.045 151.369 234.839 151.235 234.821Z" fill="white"/>
<path d="M150.678 250.327C150.602 249.217 150.693 248.102 150.947 247.016C151.036 245.911 151.291 244.823 151.705 243.787C151.69 246.002 151.344 248.204 150.678 250.327Z" fill="white"/>
<path d="M149.834 258.809C150.925 258.927 151.992 259.197 152.999 259.612C154.062 259.878 155.074 260.3 156.001 260.861C153.848 260.479 151.768 259.787 149.834 258.809Z" fill="white"/>
<path d="M140.885 270.602C140.519 268.797 140.49 266.944 140.799 265.129C141.153 266.936 141.182 268.786 140.885 270.602Z" fill="white"/>
<path d="M133.635 276.868C133.577 276.749 134.45 276.293 135.553 275.846C136.209 275.504 136.936 275.302 137.682 275.253C137.74 275.372 136.867 275.837 135.764 276.284C135.108 276.626 134.381 276.825 133.635 276.868Z" fill="white"/>
<path d="M122.652 261.544C123.586 261.552 124.516 261.659 125.424 261.864C126.356 261.914 127.279 262.06 128.177 262.301C126.297 262.609 124.364 262.344 122.652 261.544Z" fill="white"/>
<path d="M116.37 266.625C116.038 264.903 116.038 263.138 116.37 261.417C116.703 263.138 116.703 264.903 116.37 266.625Z" fill="white"/>
<path d="M117.886 256.21C117.518 255.535 117.296 254.797 117.234 254.039C117.02 253.309 116.968 252.545 117.08 251.795C117.456 252.464 117.679 253.201 117.733 253.957C117.946 254.69 117.998 255.457 117.886 256.21Z" fill="white"/>
<path d="M105.668 250.454C105.331 249.609 105.153 248.713 105.14 247.809C104.973 246.904 104.973 245.978 105.14 245.073C105.48 245.921 105.658 246.82 105.668 247.727C105.835 248.629 105.835 249.552 105.668 250.454Z" fill="white"/>
<path d="M159.761 283.8C160.835 283.928 161.897 284.139 162.935 284.429C164.01 284.568 165.071 284.784 166.11 285.077C165.016 285.252 163.895 285.19 162.83 284.894C161.735 284.749 160.687 284.375 159.761 283.8Z" fill="white"/>
<path d="M171.165 285.05C172.071 284.498 173.061 284.082 174.1 283.819C175.088 283.41 176.136 283.145 177.207 283.034C176.303 283.589 175.313 284.004 174.273 284.266C173.284 284.674 172.237 284.939 171.165 285.05Z" fill="white"/>
<path d="M182.837 274.378C182.976 275.397 183.018 276.426 182.962 277.452C183.055 278.475 183.055 279.503 182.962 280.526C182.31 278.53 182.257 276.401 182.808 274.378H182.837Z" fill="white"/>
<path d="M180.583 297.883C182.08 296.935 183.748 296.258 185.503 295.885C184.006 296.833 182.338 297.51 180.583 297.883Z" fill="white"/>
<path d="M111.67 238.342L90.3493 227.214L89.582 228.783L110.807 240.093L111.67 238.342Z" fill="#263238"/>
<path d="M104.814 237.986C104.814 237.986 101.591 231.702 100.872 230.361C100.152 229.021 98.9536 226.713 98.5604 226.713C98.1671 226.713 96.834 227.014 98.992 231C101.15 234.986 97.0737 232.778 97.0737 232.778L92.9879 230.599C92.9879 230.599 90.8683 239.236 92.7961 241.644C94.1145 243.253 95.7139 244.636 97.5245 245.73L104.814 237.986Z" fill="#FFBE9D"/>
</svg>
